<?xml version="1.0" encoding="UTF-8" standalone="no"?><svg xmlns="http://www.w3.org/2000/svg" xmlns:xlink="http://www.w3.org/1999/xlink" fill="#000000" height="495" preserveAspectRatio="xMidYMid meet" version="1" viewBox="0.0 0.0 391.8 495.0" width="391.8" zoomAndPan="magnify"><defs><clipPath id="a"><path d="M 0 0 L 391.800781 0 L 391.800781 464 L 0 464 Z M 0 0"/></clipPath></defs><g><g id="change1_1"><path d="M 336.414062 345.320312 L 330.828125 345.320312 L 330.832031 345.320312 L 306.785156 473.304688 L 327.816406 473.304688 L 320.71875 484.714844 C 318.550781 488.199219 314.734375 490.320312 310.628906 490.320312 L 303.105469 490.320312 L 303.105469 495 L 173.949219 495 L 173.949219 490.320312 L 166.429688 490.320312 C 162.324219 490.320312 158.507812 488.199219 156.339844 484.714844 L 149.242188 473.304688 L 170.269531 473.304688 L 146.222656 345.320312 L 146.230469 345.320312 L 143.410156 345.320312 L 143.410156 318.542969 L 336.414062 318.542969 L 336.414062 345.320312" fill="#fccf03"/></g><g id="change2_1"><path d="M 275.335938 455.859375 C 275.996094 455.53125 276.628906 455.097656 277.328125 454.941406 C 277.570312 454.890625 277.972656 455.53125 278.304688 455.859375 C 277.644531 456.183594 277.007812 456.621094 276.3125 456.773438 C 276.066406 456.828125 275.664062 456.183594 275.335938 455.859375 Z M 291.65625 463.171875 C 291.988281 463.824219 292.429688 464.449219 292.585938 465.140625 C 292.640625 465.378906 291.984375 465.773438 291.65625 466.101562 C 291.328125 465.449219 290.882812 464.824219 290.730469 464.136719 C 290.675781 463.894531 291.328125 463.5 291.65625 463.171875 Z M 275.335938 409.035156 C 275.996094 408.710938 276.628906 408.273438 277.328125 408.121094 C 277.570312 408.066406 277.972656 408.710938 278.304688 409.035156 C 277.644531 409.363281 277.007812 409.796875 276.3125 409.949219 C 276.066406 410.003906 275.664062 409.363281 275.335938 409.035156 Z M 235.273438 392.941406 C 234.945312 392.617188 234.292969 392.222656 234.347656 391.980469 C 234.503906 391.289062 234.945312 390.664062 235.273438 390.015625 C 235.605469 390.339844 235.933594 390.664062 236.332031 391.058594 C 235.988281 391.671875 235.632812 392.304688 235.273438 392.941406 Z M 278.304688 390.015625 C 277.863281 390.015625 277.421875 390.015625 276.980469 390.015625 C 276.523438 389.4375 275.550781 388.5625 275.691406 388.328125 C 276.738281 386.566406 277.582031 387.769531 278.269531 388.730469 C 278.480469 389.023438 278.304688 389.578125 278.304688 390.015625 Z M 281.355469 396.332031 C 281.800781 397.867188 283.015625 399.1875 283.886719 400.605469 C 283.09375 400.976562 282.320312 401.59375 281.507812 401.652344 C 280.691406 401.707031 279.835938 401.207031 278.652344 400.839844 C 278.652344 397.308594 278.652344 393.660156 278.652344 389.300781 C 282.167969 391.671875 280.75 394.253906 281.355469 396.332031 Z M 188.882812 412.417969 C 186.9375 414.144531 185.019531 414.144531 183.070312 412.417969 C 185.019531 410.691406 186.9375 410.691406 188.882812 412.417969 Z M 285.671875 380.4375 C 285.902344 380.886719 286.132812 381.335938 286.355469 381.765625 C 286.097656 382.042969 285.886719 382.269531 285.671875 382.5 C 285.460938 382.042969 285.171875 381.601562 285.074219 381.117188 C 285.039062 380.945312 285.460938 380.667969 285.671875 380.4375 Z M 238.679688 457.9375 C 238.816406 458.140625 238.8125 458.652344 238.667969 458.808594 C 238.527344 458.960938 238.132812 458.839844 237.847656 458.839844 C 237.550781 458.433594 236.925781 457.816406 237.011719 457.652344 C 237.6875 456.410156 238.234375 457.257812 238.679688 457.9375 Z M 239.246094 458.839844 C 241.125 461.496094 240.804688 464.203125 239.847656 467.875 C 238.003906 464.460938 239.027344 461.542969 239.246094 458.839844 Z M 290.507812 468.15625 C 287.429688 471.046875 286.445312 467.34375 284.667969 466.03125 C 287.75 463.140625 288.730469 466.84375 290.507812 468.15625 Z M 330.136719 322.335938 C 328.578125 322.007812 327.976562 320.476562 326.925781 319.535156 C 327.816406 318.371094 329.003906 318.089844 330.0625 318.9375 C 331.234375 319.871094 331.003906 321.15625 330.136719 322.335938 Z M 174.476562 320.605469 C 174.261719 320.144531 173.976562 319.707031 173.875 319.222656 C 173.839844 319.050781 174.261719 318.769531 174.476562 318.542969 C 174.703125 318.988281 174.933594 319.4375 175.15625 319.871094 C 174.902344 320.144531 174.6875 320.375 174.476562 320.605469 Z M 147.632812 337.109375 C 147.421875 336.882812 147.207031 336.652344 146.953125 336.378906 C 147.175781 335.945312 147.402344 335.496094 147.632812 335.046875 C 147.847656 335.277344 148.269531 335.554688 148.234375 335.726562 C 148.132812 336.210938 147.847656 336.652344 147.632812 337.109375 Z M 204.195312 354.648438 C 202.914062 356.128906 201.632812 356.128906 200.351562 354.648438 C 201.632812 353.167969 202.914062 353.167969 204.195312 354.648438 Z M 267.917969 372.457031 C 268.273438 373.09375 268.628906 373.730469 268.972656 374.34375 C 268.578125 374.734375 268.246094 375.058594 267.917969 375.382812 C 267.585938 374.734375 267.144531 374.109375 266.988281 373.421875 C 266.933594 373.179688 267.585938 372.78125 267.917969 372.457031 Z M 338.910156 318.171875 L 138.148438 318.171875 C 134.898438 318.171875 132.261719 320.808594 132.261719 324.058594 L 132.261719 339.433594 C 132.261719 342.683594 134.898438 345.320312 138.148438 345.320312 L 146.226562 345.320312 L 146.222656 345.320312 L 151.582031 373.832031 C 163.226562 373.355469 169.019531 387.234375 180.53125 389.050781 C 192.300781 390.902344 201.796875 379.742188 213.097656 375.972656 C 224.714844 372.101562 237.246094 376.316406 249.164062 379.128906 C 261.078125 381.9375 275.285156 382.714844 283.863281 373.976562 C 287.988281 369.777344 290.539062 363.605469 296.023438 361.472656 C 302.144531 359.09375 308.78125 362.898438 314.242188 366.554688 C 317.097656 368.460938 322.988281 369.984375 325.839844 371.894531 L 329.816406 350.730469 L 164.800781 345.527344 C 165.136719 345.75 165.390625 346.214844 165.683594 346.570312 C 165.199219 346.855469 164.734375 347.304688 164.222656 347.382812 C 163.703125 347.457031 163.121094 347.210938 162.605469 347 C 162.363281 346.902344 162.125 346.59375 162.027344 346.316406 C 161.878906 345.894531 161.878906 345.609375 161.984375 345.4375 L 159.578125 345.363281 C 158.816406 345.363281 158.054688 345.363281 157.292969 345.363281 C 155.089844 343.71875 154.246094 339.976562 150.289062 341.347656 C 151.519531 338.296875 153.25 339.480469 154.570312 339.191406 C 154.777344 339.148438 161.425781 344.765625 161.964844 345.320312 L 162.136719 345.320312 C 162.265625 345.257812 162.453125 345.257812 162.699219 345.320312 L 163.679688 345.320312 C 163.746094 345.316406 163.8125 345.320312 163.878906 345.320312 L 338.910156 345.320312 C 342.160156 345.320312 344.792969 342.683594 344.792969 339.433594 L 344.792969 324.058594 C 344.792969 320.808594 342.160156 318.171875 338.910156 318.171875 Z M 248.28125 480.503906 C 249.566406 479.023438 250.84375 479.023438 252.125 480.503906 C 250.84375 481.984375 249.566406 481.984375 248.28125 480.503906 Z M 182.289062 483.234375 C 181.667969 482.898438 181.023438 482.546875 180.378906 482.195312 C 180.707031 481.871094 181.109375 481.226562 181.355469 481.28125 C 182.050781 481.433594 182.6875 481.871094 183.34375 482.195312 C 183.015625 482.519531 182.6875 482.847656 182.289062 483.234375 Z M 280.691406 473.304688 L 149.242188 473.304688 L 156.339844 484.714844 C 158.507812 488.199219 162.324219 490.320312 166.429688 490.320312 L 173.949219 490.320312 L 173.949219 495 L 303.105469 495 L 303.105469 490.320312 L 310.628906 490.320312 C 314.734375 490.320312 318.550781 488.199219 320.71875 484.714844 L 327.816406 473.304688 L 280.691406 473.304688" fill="#ffffff"/></g><g clip-path="url(#a)" id="change3_1"><path d="M 229.402344 247.914062 C 230.195312 256.253906 232.3125 272.371094 234.347656 287.171875 C 233.753906 287.550781 233.160156 287.933594 232.5625 288.339844 C 231.644531 287.976562 230.742188 287.679688 229.859375 287.433594 C 228.304688 284.113281 226.695312 280.898438 225.0625 277.785156 C 223.679688 267.34375 222.320312 254.234375 221.71875 239.980469 C 221.300781 230.023438 222.75 222.164062 226.023438 216.507812 C 227.585938 230.523438 228.886719 242.492188 229.402344 247.914062 Z M 260.015625 282.6875 C 266.515625 283.46875 271.445312 286.511719 274.699219 289.257812 C 265.496094 295.003906 258.042969 303.503906 254.257812 312.421875 C 249.289062 301.214844 243.363281 294.675781 237.625 290.96875 C 237.511719 290.167969 237.402344 289.367188 237.289062 288.558594 C 245.253906 283.804688 252.867188 281.816406 260.015625 282.6875 Z M 236.621094 303.488281 C 235.167969 299.589844 233.609375 295.785156 231.980469 292.089844 C 232.320312 291.839844 232.65625 291.609375 232.992188 291.371094 C 233.679688 291.695312 234.375 292.0625 235.078125 292.476562 C 235.621094 296.386719 236.144531 300.121094 236.621094 303.488281 Z M 227.5 292.113281 C 227.371094 291.933594 227.234375 291.753906 227.105469 291.574219 C 226.988281 290.867188 226.871094 290.144531 226.746094 289.375 C 227.109375 289.4375 227.476562 289.503906 227.851562 289.589844 C 228.105469 290.132812 228.355469 290.683594 228.605469 291.234375 C 228.238281 291.519531 227.867188 291.816406 227.5 292.113281 Z M 226.257812 286.21875 C 226.335938 286.382812 226.414062 286.546875 226.492188 286.710938 C 226.4375 286.699219 226.382812 286.6875 226.328125 286.683594 C 226.304688 286.527344 226.28125 286.371094 226.257812 286.21875 Z M 322.542969 241.003906 C 330.292969 237.128906 339.007812 255.53125 339.007812 261.828125 C 339.007812 261.828125 384.53125 254.078125 391.796875 240.519531 C 391.796875 240.519531 372.910156 203.714844 349.179688 198.871094 C 349.179688 198.871094 340.945312 213.398438 332.710938 211.945312 C 324.480469 210.492188 333.195312 192.089844 338.039062 189.183594 C 338.039062 189.183594 313.824219 171.75 304.625 173.6875 C 295.421875 175.625 288.640625 198.871094 277.019531 197.417969 C 265.394531 195.964844 283.316406 168.359375 293 164.96875 C 293 164.96875 250.59375 161.191406 236.207031 204.960938 C 233.890625 205.621094 230.886719 206.953125 228.003906 209.632812 C 225.511719 187.398438 222.605469 162 221.164062 149.441406 C 259.808594 159.375 267.816406 135.960938 267.816406 135.960938 C 261.035156 141.824219 238.273438 142.207031 242.148438 135.960938 C 246.023438 129.714844 251.835938 130.101562 268.300781 125.257812 C 284.765625 120.414062 290.09375 100.558594 290.09375 100.558594 C 290.09375 100.558594 279.441406 97.652344 266.847656 102.496094 C 254.257812 107.335938 245.539062 94.746094 270.722656 88.449219 C 295.90625 82.152344 293.484375 55.519531 293.484375 55.519531 C 279.925781 62.78125 259.097656 48.253906 281.378906 42.925781 C 303.65625 37.597656 315.761719 7.085938 315.761719 7.085938 C 290.09375 -18.578125 247.960938 33.722656 247.960938 33.722656 C 242.632812 28.398438 243.117188 16.773438 243.117188 16.773438 C 243.117188 16.773438 214.058594 32.753906 217.449219 54.550781 C 220.839844 76.34375 215.027344 74.40625 215.027344 74.40625 C 204.375 71.015625 201.953125 51.644531 201.953125 51.644531 C 201.953125 51.644531 185.484375 65.203125 197.027344 84.089844 C 208.570312 102.980469 206.632812 119.445312 206.632812 119.445312 C 194.84375 118.960938 187.421875 95.230469 187.421875 95.230469 C 187.421875 95.230469 179.367188 137.054688 218.324219 148.65625 C 219.765625 161.199219 222.9375 188.890625 225.554688 212.320312 C 220.691406 218.582031 218.476562 227.898438 218.992188 240.09375 C 219.46875 251.453125 220.429688 262.09375 221.5 271.257812 C 211.140625 252.910156 200.367188 239.109375 194.945312 232.601562 C 195.34375 232.09375 195.738281 231.582031 196.140625 231.054688 C 227.621094 189.667969 178.222656 162.0625 178.222656 162.0625 C 178.222656 162.0625 185.972656 193.058594 180.160156 196.933594 C 179.761719 197.195312 179.433594 197.429688 179.144531 197.648438 C 175.113281 192.863281 164.207031 178.582031 162.238281 162.0625 C 159.816406 141.722656 132.695312 136.878906 132.695312 136.878906 C 132.695312 136.878906 140.929688 164.96875 138.507812 174.171875 C 138.507812 174.171875 124.949219 160.609375 118.167969 148.988281 C 111.386719 137.363281 85.71875 130.101562 68.769531 142.207031 C 68.769531 142.207031 85.71875 150.441406 87.171875 159.15625 C 87.171875 159.15625 50.851562 150.441406 32.449219 157.21875 C 14.042969 164 0 188.699219 0 188.699219 C 0 188.699219 19.371094 208.554688 42.132812 200.808594 C 64.894531 193.058594 69.253906 189.183594 73.613281 188.699219 C 77.972656 188.214844 74.097656 209.523438 55.695312 212.914062 C 55.695312 212.914062 70.707031 230.351562 96.859375 224.054688 C 123.011719 217.757812 124.949219 217.757812 126.402344 221.148438 C 127.855469 224.539062 105.578125 245.847656 94.921875 245.363281 C 94.921875 245.363281 124.464844 262.328125 144.320312 245.371094 C 164.175781 228.410156 166.597656 239.066406 166.597656 239.066406 C 166.597656 239.066406 158.851562 256.984375 145.289062 257.46875 C 145.289062 257.46875 163.464844 271.515625 193.214844 234.785156 C 199.265625 242.085938 211.453125 257.871094 222.417969 278.625 C 222.792969 281.433594 223.167969 284.050781 223.53125 286.4375 C 223.339844 286.429688 223.160156 286.433594 222.976562 286.429688 C 191.84375 251.09375 154.976562 274.421875 154.976562 274.421875 C 169.503906 272.96875 185.972656 288.464844 178.707031 289.917969 C 171.441406 291.371094 157.398438 285.558594 144.804688 289.917969 C 132.214844 294.277344 119.136719 316.070312 119.136719 316.070312 C 124.464844 315.585938 145.289062 327.210938 137.074219 334.957031 C 128.859375 342.707031 114.292969 330.597656 114.292969 330.597656 C 103.15625 346.097656 102.1875 381.933594 102.1875 381.933594 C 112.355469 391.136719 151.101562 381.933594 151.101562 381.933594 C 144.804688 374.671875 153.039062 356.265625 159.816406 356.007812 C 166.597656 355.753906 168.820312 377.09375 168.820312 377.09375 C 208.820312 377.574219 193.71875 333.503906 207.28125 334.957031 C 220.839844 336.410156 210.667969 358.6875 210.667969 358.6875 C 210.667969 358.6875 251.554688 329.972656 229.019531 294.394531 C 229.261719 294.199219 229.503906 293.988281 229.746094 293.800781 C 233.269531 301.855469 236.429688 310.410156 238.894531 319.339844 L 241.5625 318.78125 C 241.527344 318.542969 239.976562 307.867188 238.121094 294.554688 C 243.015625 298.355469 248.011719 304.601562 252.296875 314.722656 L 253.554688 314.1875 C 250.933594 321.324219 250.699219 328.621094 253.878906 334.886719 C 253.878906 334.886719 260.34375 329.300781 262.402344 322.832031 C 264.460938 316.363281 271.8125 316.65625 271.8125 316.65625 C 271.8125 316.65625 270.929688 327.828125 266.519531 337.238281 C 262.109375 346.644531 255.933594 366.933594 267.402344 372.226562 C 267.402344 372.226562 274.753906 374.285156 280.925781 361.347656 C 287.101562 348.410156 291.511719 352.230469 293.863281 353.996094 C 296.214844 355.761719 289.453125 365.167969 291.21875 376.636719 C 292.980469 388.101562 296.804688 402.804688 304.742188 407.214844 C 304.742188 407.214844 316.210938 387.515625 323.265625 390.75 C 330.320312 393.984375 313.5625 406.917969 316.796875 428.382812 C 320.03125 449.847656 332.085938 463.960938 332.085938 463.960938 C 332.085938 463.960938 355.902344 439.261719 356.488281 425.738281 C 357.078125 412.210938 349.433594 394.277344 351.492188 388.101562 C 353.546875 381.929688 363.839844 389.570312 363.839844 394.863281 C 363.839844 394.863281 369.71875 384.28125 365.601562 369.285156 C 361.488281 354.289062 336.203125 345.765625 335.027344 336.648438 C 333.847656 327.535156 357.371094 334.59375 361.191406 338.121094 C 361.191406 338.121094 350.902344 317.832031 337.671875 312.246094 C 324.441406 306.660156 308.269531 307.246094 304.152344 300.484375 C 304.152344 300.484375 320.03125 291.371094 333.261719 300.484375 C 333.261719 300.484375 327.382812 282.257812 298.863281 281.960938 C 291.320312 281.886719 283.886719 284.105469 277.21875 287.777344 C 273.707031 284.628906 268.074219 280.917969 260.386719 279.980469 C 252.90625 279.070312 245.042969 280.980469 236.890625 285.636719 C 234.910156 271.191406 232.886719 255.738281 232.117188 247.65625 C 231.566406 241.832031 230.109375 228.488281 228.394531 213.15625 C 228.617188 212.902344 228.835938 212.644531 229.066406 212.402344 C 231.109375 210.265625 233.300781 208.984375 235.195312 208.207031 C 223.101562 251.691406 263.960938 268.003906 275.566406 266.863281 C 275.566406 266.863281 256.195312 257.953125 266.363281 241.003906 C 276.535156 224.054688 273.144531 287.394531 318.667969 266.863281 C 318.667969 266.863281 314.792969 244.878906 322.542969 241.003906" fill="#324b9a"/></g><g id="change4_1"><path d="M 236.671875 99.476562 C 237.542969 99.929688 238.519531 100.226562 239.246094 100.859375 C 240.214844 101.710938 240.988281 101.785156 241.855469 100.832031 C 241.257812 100.195312 240.675781 99.5625 239.839844 98.664062 C 238.980469 99.277344 237.664062 98.007812 236.671875 99.476562 Z M 234.125 98.054688 C 234.265625 98.207031 234.410156 98.363281 234.582031 98.546875 C 234.851562 98.386719 235.132812 98.21875 235.410156 98.054688 C 235.269531 97.898438 235.09375 97.597656 234.988281 97.621094 C 234.683594 97.695312 234.410156 97.898438 234.125 98.054688 Z M 232.007812 100.359375 C 231.828125 100.722656 231.695312 101.109375 231.554688 101.480469 C 231.496094 102.167969 231.664062 102.847656 232.386719 102.636719 C 233.082031 102.4375 233.066406 100.910156 232.421875 100.394531 C 232.324219 100.316406 232.035156 100.304688 232.007812 100.359375 Z M 260.730469 199.378906 C 260.875 199.535156 261.046875 199.839844 261.152344 199.8125 C 261.457031 199.742188 261.730469 199.535156 262.019531 199.382812 C 261.875 199.226562 261.699219 198.921875 261.59375 198.949219 C 261.292969 199.019531 261.015625 199.226562 260.730469 199.378906 Z M 260.089844 230.542969 C 259.933594 230.84375 259.777344 231.144531 259.628906 231.433594 C 259.800781 231.617188 259.945312 231.773438 260.089844 231.925781 C 260.230469 231.617188 260.421875 231.324219 260.492188 230.996094 C 260.515625 230.882812 260.230469 230.695312 260.089844 230.542969 Z M 253.066406 189.722656 C 252.851562 190.109375 253.121094 191.132812 253.484375 191.472656 C 253.871094 191.835938 254.632812 191.738281 255.023438 191.804688 C 255.636719 191.691406 256.246094 191.761719 256.378906 191.523438 C 256.671875 191.003906 257.019531 190.144531 256.8125 189.746094 C 256.207031 188.574219 253.710938 188.558594 253.066406 189.722656 Z M 246.179688 75.429688 C 245.667969 75.753906 245.28125 76.320312 244.867188 76.808594 C 244.152344 77.640625 244.210938 77.949219 245.238281 79.167969 C 246.253906 78.078125 247.265625 76.984375 248.277344 75.898438 C 247.703125 75.105469 246.9375 74.949219 246.179688 75.429688 Z M 215.773438 111.628906 C 215.550781 111.410156 215.328125 111.191406 215.0625 110.929688 C 214.644531 111.15625 214.214844 111.394531 213.78125 111.628906 C 214.003906 111.847656 214.269531 112.28125 214.433594 112.242188 C 214.902344 112.140625 215.328125 111.847656 215.773438 111.628906 Z M 221.324219 296.101562 C 219.855469 296.460938 218.34375 296.90625 216.796875 297.414062 C 210.859375 287.535156 192.847656 278.015625 192.058594 277.601562 L 190.792969 280.019531 C 190.933594 280.09375 201.363281 285.609375 208.769531 292.296875 C 208.160156 292.335938 207.550781 292.375 206.9375 292.425781 C 206.78125 292.4375 206.640625 292.726562 206.492188 292.882812 C 206.789062 293.203125 207.132812 293.484375 207.371094 293.847656 C 208.054688 294.886719 208.996094 295.03125 210.089844 294.980469 C 210.710938 294.949219 211.109375 294.9375 211.335938 294.804688 C 212.425781 295.972656 213.390625 297.15625 214.152344 298.339844 C 202.964844 302.480469 190.113281 310.015625 177.394531 318.730469 C 171.210938 310.265625 150.253906 304.160156 148.464844 303.855469 L 148.007812 306.550781 C 150.527344 306.976562 169.878906 313.066406 175.152344 320.277344 C 143.316406 342.457031 113.015625 371.214844 112.703125 371.617188 L 114.828125 373.328125 C 117.035156 370.808594 146.171875 343.765625 176.414062 322.71875 C 179.746094 332.105469 177.351562 357.390625 177.328125 357.660156 L 180.042969 357.925781 C 180.15625 356.777344 182.605469 330.828125 178.71875 321.125 C 186.492188 315.804688 194.292969 310.9375 201.6875 307.03125 C 201.808594 307.667969 202.585938 307.828125 203.382812 307.757812 C 203.910156 307.542969 204.472656 307.34375 204.992188 307.066406 C 205.074219 307.023438 205.058594 306.582031 204.941406 306.433594 C 204.726562 306.144531 204.386719 305.949219 204.007812 305.832031 C 207.972656 303.820312 211.808594 302.105469 215.441406 300.777344 C 219.683594 310.996094 218.003906 334.597656 217.988281 334.84375 L 220.710938 335.042969 C 220.785156 334.019531 222.429688 310.832031 218.019531 299.886719 C 219.367188 299.449219 220.691406 299.066406 221.972656 298.753906 Z M 267.671875 108 C 256.761719 106.988281 235.21875 104.449219 229.199219 101.910156 C 229.835938 100.042969 230.535156 98.109375 231.265625 96.148438 C 231.414062 96.070312 231.558594 95.988281 231.707031 95.914062 C 231.628906 95.835938 231.542969 95.734375 231.460938 95.632812 C 234.8125 86.714844 239.160156 77.003906 244.808594 67.265625 C 247.46875 68.4375 250.796875 68.886719 254.316406 68.886719 C 264.769531 68.886719 276.832031 64.988281 277.53125 64.757812 L 276.679688 62.164062 C 276.464844 62.234375 255.863281 68.898438 246.207031 64.898438 C 256.859375 47.203125 271.820312 29.695312 292.722656 17.203125 L 291.324219 14.859375 C 269.972656 27.617188 254.710938 45.496094 243.859375 63.546875 C 235.761719 57.351562 235.695312 39.636719 235.710938 39.457031 L 232.984375 39.269531 C 232.972656 39.464844 232.847656 58.902344 242.460938 65.914062 C 235.484375 77.949219 230.4375 89.957031 226.820312 100.484375 C 220.835938 95.96875 213.699219 84.664062 213.621094 84.539062 L 211.308594 85.988281 C 211.652344 86.539062 219.292969 98.636719 225.914062 103.1875 C 224.175781 108.480469 222.8125 113.339844 221.746094 117.578125 C 221.527344 117.449219 221.3125 117.320312 221.105469 117.195312 C 220.933594 117.382812 220.789062 117.535156 220.648438 117.6875 C 220.933594 117.84375 221.207031 118.050781 221.511719 118.121094 C 221.542969 118.128906 221.582031 118.101562 221.621094 118.0625 C 219.171875 127.894531 218.371094 134.222656 218.34375 134.445312 L 221.054688 134.765625 C 221.09375 134.449219 222.683594 121.871094 228.339844 104.496094 C 236.746094 107.835938 266.117188 110.597656 267.417969 110.722656 Z M 255.351562 54.445312 C 254.609375 55.074219 254.441406 55.933594 254.949219 56.707031 C 255.523438 57.578125 256.328125 57.378906 257.070312 56.785156 C 256.898438 55.636719 255.902344 55.226562 255.351562 54.445312 Z M 299.855469 366.152344 C 299.960938 366.613281 300.257812 367.035156 300.480469 367.472656 C 300.703125 367.253906 300.921875 367.035156 301.1875 366.769531 C 300.960938 366.359375 300.71875 365.933594 300.480469 365.507812 C 300.257812 365.726562 299.820312 365.988281 299.855469 366.152344 Z M 263.03125 53.097656 C 263.703125 52.371094 264.164062 51.925781 264.570312 51.429688 C 265.277344 50.566406 265.210938 50.234375 264.179688 49.089844 C 263.421875 50.1875 261.640625 50.855469 263.03125 53.097656 Z M 353.941406 224.019531 C 354.035156 223.566406 352.808594 222.820312 352.191406 222.207031 C 351.957031 222.625 351.726562 223.035156 351.496094 223.449219 C 344.753906 221.9375 336.664062 220.585938 327.054688 219.691406 C 317.402344 218.792969 307.078125 218.078125 297.046875 217.503906 C 298.234375 209.128906 305.0625 200.511719 308.828125 195.769531 C 311.109375 192.894531 311.652344 192.210938 311.382812 191.234375 L 308.75 191.964844 C 308.644531 191.582031 308.761719 191.308594 308.761719 191.304688 C 308.605469 191.65625 307.589844 192.9375 306.691406 194.070312 C 302.726562 199.066406 295.527344 208.15625 294.316406 217.351562 C 276.582031 216.375 260.046875 215.839844 250.148438 215.519531 C 245.230469 215.355469 241.347656 215.230469 240.796875 215.15625 L 240.425781 217.859375 C 241.089844 217.953125 243.859375 218.042969 250.058594 218.246094 C 259.933594 218.566406 276.421875 219.101562 294.097656 220.074219 C 293.648438 232.769531 297.777344 251.878906 297.960938 252.714844 L 300.625 252.132812 C 300.582031 251.933594 296.402344 232.597656 296.828125 220.226562 C 306.851562 220.800781 317.164062 221.515625 326.800781 222.410156 C 336.070312 223.273438 343.914062 224.578125 350.472656 226.042969 C 351.09375 226.65625 351.648438 227.203125 352.191406 227.738281 C 352.386719 227.351562 352.601562 226.96875 352.816406 226.585938 C 370.125 230.742188 377.578125 235.863281 377.679688 235.9375 L 379.261719 233.710938 C 378.832031 233.40625 371.359375 228.234375 353.941406 224.019531 Z M 300.378906 254.992188 C 300.90625 254.226562 300.730469 253.367188 300.007812 252.726562 C 299.421875 253.484375 298.464844 253.917969 298.261719 255.046875 C 298.996094 255.671875 299.796875 255.839844 300.378906 254.992188 Z M 329.714844 356.496094 C 326.082031 347.957031 321.230469 338.859375 314.78125 329.796875 C 314.65625 329.917969 314.539062 330.03125 314.421875 330.148438 C 314.203125 329.710938 313.90625 329.292969 313.800781 328.828125 C 313.789062 328.769531 313.847656 328.691406 313.929688 328.613281 C 312.207031 326.246094 310.378906 323.878906 308.425781 321.53125 C 316.726562 320.703125 336.800781 323.9375 344.539062 325.398438 L 345.046875 322.714844 C 343.808594 322.480469 315.554688 317.183594 306.351562 319.085938 C 299.382812 311.074219 291.011719 303.273438 280.925781 296.105469 C 280.222656 295.605469 279.5 295.09375 279.34375 294.945312 C 279.460938 295.054688 279.671875 295.371094 279.667969 295.808594 L 276.9375 295.789062 C 276.933594 296.617188 277.253906 296.847656 279.34375 298.332031 C 288.925781 305.140625 296.9375 312.53125 303.640625 320.128906 C 294.609375 325.140625 276.460938 347.1875 274.28125 349.855469 L 276.394531 351.585938 C 282.359375 344.277344 298.6875 325.425781 305.464844 322.242188 C 315.410156 333.980469 322.304688 346.121094 327.089844 357.308594 C 318.316406 361.851562 304.59375 385.125 304.410156 387.210938 L 305.199219 388.65625 L 306.390625 386.199219 C 307.066406 386.527344 307.195312 387.246094 307.113281 387.554688 C 307.808594 384.902344 320.820312 363.671875 328.136719 359.820312 C 330.425781 365.464844 332.183594 370.835938 333.527344 375.742188 C 334.207031 378.230469 334.800781 380.6875 335.324219 383.117188 C 335.46875 383.082031 335.636719 383.078125 335.828125 383.109375 C 336.035156 383.148438 336.25 383.117188 336.460938 383.117188 C 336.667969 383.117188 336.878906 383.105469 337.089844 383.117188 C 337.625 383.148438 338.023438 383.382812 338.242188 383.75 C 337.648438 380.882812 336.96875 377.972656 336.160156 375.023438 C 334.816406 370.121094 333.074219 364.769531 330.808594 359.140625 C 339.277344 359.054688 358.128906 372.546875 361.574219 379.265625 L 364.003906 378.019531 C 360.398438 370.988281 339.601562 355.398438 329.714844 356.496094 Z M 278.652344 320.363281 C 277.21875 321.679688 277.21875 322.988281 278.652344 324.304688 C 280.082031 322.988281 280.082031 321.679688 278.652344 320.363281 Z M 314.34375 258.019531 C 314.988281 257.613281 315.011719 256.25 314.367188 255.734375 C 314.269531 255.652344 314.046875 255.636719 313.941406 255.699219 C 313.285156 256.085938 313.265625 257.460938 313.910156 257.976562 C 314.007812 258.058594 314.195312 258.011719 314.34375 258.019531 Z M 308.363281 361.617188 C 307.503906 363.882812 304.796875 362.925781 303.183594 364.886719 C 306.292969 365.773438 308.519531 365.691406 310.734375 365.1875 C 311.003906 365.128906 311.308594 364.789062 311.417969 364.511719 C 311.796875 363.554688 311.386719 363.5625 310.460938 363.433594 C 309.699219 363.328125 309.070312 362.269531 308.363281 361.617188 Z M 327.019531 339.277344 C 326.960938 339.394531 326.976562 339.632812 327.050781 339.738281 C 327.53125 340.433594 328.800781 340.40625 329.175781 339.710938 C 329.167969 339.554688 329.210938 339.351562 329.136719 339.246094 C 328.65625 338.550781 327.378906 338.570312 327.019531 339.277344 Z M 213.667969 324.164062 C 213.367188 325.269531 214.34375 325.523438 215.335938 325.4375 C 215.863281 325.222656 216.421875 325.019531 216.941406 324.746094 C 217.023438 324.703125 217.007812 324.261719 216.894531 324.109375 C 216.152344 323.125 213.957031 323.101562 213.667969 324.164062 Z M 307.324219 377.074219 C 307.335938 374.929688 307.335938 374.90625 306.167969 374.816406 C 305.542969 374.769531 304.914062 374.808594 304.285156 374.808594 C 303.769531 375.628906 302.695312 376.003906 302.613281 377.191406 C 306.761719 377.683594 306.761719 377.683594 307.324219 377.074219 Z M 312.304688 363.519531 C 312.675781 363.210938 312.972656 362.785156 313.210938 362.359375 C 313.25 362.285156 312.824219 361.964844 312.59375 361.738281 C 312.210938 362.046875 311.765625 362.3125 311.460938 362.6875 C 311.316406 362.863281 311.320312 363.363281 311.46875 363.511719 C 311.617188 363.65625 312.128906 363.660156 312.304688 363.519531 Z M 337.089844 385.898438 C 336.695312 385.839844 336.285156 385.894531 335.882812 385.882812 C 342.894531 421.980469 333.652344 450.402344 333.550781 450.714844 L 336.136719 451.578125 C 336.246094 451.261719 345.84375 421.808594 338.410156 384.601562 C 338.402344 384.679688 338.398438 384.757812 338.378906 384.839844 C 338.226562 385.535156 337.878906 386.015625 337.089844 385.898438 Z M 338.242188 383.75 C 338.300781 384.035156 338.355469 384.316406 338.410156 384.601562 C 338.441406 384.269531 338.378906 383.984375 338.242188 383.75 Z M 315.132812 329.449219 C 314.902344 329.039062 314.664062 328.609375 314.421875 328.183594 C 314.285156 328.320312 314.070312 328.476562 313.929688 328.613281 C 314.21875 329.007812 314.5 329.402344 314.78125 329.796875 C 314.890625 329.6875 315.007812 329.574219 315.132812 329.449219 Z M 334.539062 384.164062 C 334.328125 385.136719 334.871094 385.835938 335.828125 385.882812 C 335.847656 385.886719 335.863281 385.882812 335.882812 385.882812 C 335.707031 384.964844 335.527344 384.046875 335.324219 383.117188 C 334.882812 383.230469 334.652344 383.640625 334.539062 384.164062 Z M 127.582031 338.367188 C 127.683594 338.828125 127.980469 339.25 128.203125 339.6875 C 128.425781 339.46875 128.648438 339.25 128.910156 338.988281 C 128.683594 338.574219 128.441406 338.148438 128.203125 337.722656 C 127.980469 337.941406 127.542969 338.207031 127.582031 338.367188 Z M 117.410156 166.019531 C 117.878906 165.917969 118.304688 165.625 118.746094 165.40625 C 118.523438 165.1875 118.304688 164.96875 118.039062 164.707031 C 117.621094 164.933594 117.1875 165.171875 116.753906 165.40625 C 116.976562 165.625 117.246094 166.054688 117.410156 166.019531 Z M 93.847656 152.636719 C 94.085938 152.210938 94.324219 151.785156 94.554688 151.371094 C 94.289062 151.109375 94.070312 150.890625 93.847656 150.675781 C 93.625 151.109375 93.328125 151.53125 93.222656 151.992188 C 93.1875 152.152344 93.625 152.421875 93.847656 152.636719 Z M 120.265625 182.78125 C 120.125 182.628906 119.949219 182.324219 119.84375 182.347656 C 119.539062 182.421875 119.265625 182.628906 118.980469 182.78125 C 119.121094 182.933594 119.265625 183.089844 119.4375 183.273438 C 119.707031 183.113281 119.984375 182.945312 120.265625 182.78125 Z M 108.503906 195.09375 C 111.726562 192.1875 114.136719 188.890625 114.902344 185.238281 C 120.617188 186.789062 126.269531 188.671875 131.738281 190.945312 C 142.109375 195.265625 150.824219 199.175781 158.125 202.644531 C 155.621094 211.03125 136.460938 227.78125 128.992188 233.757812 L 130.695312 235.890625 C 131.808594 234.996094 156.683594 215.007812 160.59375 203.828125 C 182.539062 214.421875 190.480469 220.515625 190.585938 220.597656 L 192.269531 218.449219 C 191.832031 218.105469 183.789062 211.910156 161.171875 201.058594 C 162.152344 190.300781 155.523438 170.601562 155.234375 169.742188 L 152.648438 170.617188 C 152.714844 170.816406 158.972656 189.398438 158.519531 199.796875 C 151.355469 196.414062 142.851562 192.617188 132.785156 188.425781 C 127.078125 186.050781 121.171875 184.097656 115.199219 182.492188 C 115.84375 167.253906 106.96875 149.308594 106.582031 148.53125 L 104.140625 149.753906 C 104.230469 149.933594 112.847656 167.351562 112.492188 181.792969 C 71.089844 171.449219 27.660156 177.554688 27.28125 177.683594 L 28.070312 180.292969 C 28.28125 180.246094 38.484375 178.816406 53.589844 178.53125 C 53.441406 178.621094 53.292969 178.710938 53.140625 178.789062 C 53.34375 179.007812 53.589844 179.4375 53.738281 179.402344 C 54.164062 179.300781 54.550781 179.007812 54.953125 178.789062 C 54.882812 178.714844 54.804688 178.613281 54.730469 178.515625 C 70.660156 178.277344 91.734375 179.347656 112.257812 184.542969 C 109.65625 198.078125 78.914062 207.027344 78.59375 207.117188 L 79.34375 209.742188 C 80.320312 209.464844 96.472656 204.761719 106.75 196.585938 C 106.855469 197.046875 107.054688 197.511719 107.332031 197.851562 C 107.511719 198.070312 108.304688 198.078125 108.503906 197.855469 C 109.136719 197.144531 110.160156 196.726562 110.296875 195.546875 C 109.722656 195.050781 109.113281 195.039062 108.503906 195.09375 Z M 51.667969 186.261719 C 51.761719 186.71875 52.03125 187.136719 52.234375 187.570312 C 52.4375 187.355469 52.835938 187.089844 52.800781 186.929688 C 52.707031 186.46875 52.4375 186.054688 52.234375 185.617188 C 52.03125 185.835938 51.636719 186.097656 51.667969 186.261719 Z M 210.792969 118.503906 C 211.03125 118.078125 211.269531 117.652344 211.503906 117.238281 C 211.234375 116.976562 211.015625 116.757812 210.792969 116.539062 C 210.570312 116.976562 210.273438 117.398438 210.167969 117.859375 C 210.132812 118.019531 210.570312 118.285156 210.792969 118.503906 Z M 248.726562 48.660156 C 248.835938 48.722656 249.054688 48.703125 249.152344 48.625 C 249.796875 48.109375 249.773438 46.742188 249.128906 46.339844 C 248.980469 46.351562 248.792969 46.300781 248.695312 46.382812 C 248.050781 46.898438 248.070312 48.273438 248.726562 48.660156 Z M 300.519531 195.269531 C 299.011719 193.527344 297.507812 193.527344 296.003906 195.269531 C 297.507812 197.011719 299.011719 197.011719 300.519531 195.269531 Z M 201.34375 195.246094 C 200.484375 194.25 199.628906 194.25 198.765625 195.246094 C 199.628906 196.238281 200.484375 196.238281 201.34375 195.246094 Z M 207.429688 117.859375 C 207.328125 117.398438 207.03125 116.976562 206.808594 116.539062 C 206.585938 116.757812 206.148438 117.023438 206.1875 117.1875 C 206.289062 117.648438 206.585938 118.066406 206.808594 118.503906 C 207.03125 118.285156 207.46875 118.019531 207.429688 117.859375 Z M 188.710938 293.085938 C 189.285156 293.957031 190.089844 293.757812 190.859375 293.140625 C 190.707031 292.816406 190.605469 292.472656 190.410156 292.214844 C 190.019531 291.703125 189.578125 291.246094 189.167969 290.777344 C 188.371094 291.453125 188.199219 292.3125 188.710938 293.085938 Z M 223.828125 41.269531 C 223.6875 41.117188 223.511719 40.8125 223.40625 40.839844 C 223.101562 40.910156 222.828125 41.117188 222.542969 41.269531 C 222.683594 41.425781 222.828125 41.578125 223 41.765625 C 223.269531 41.605469 223.550781 41.4375 223.828125 41.269531 Z M 75.183594 167.394531 C 75.714844 168.371094 77.5 168.410156 78.175781 167.433594 C 78.28125 167.28125 78.300781 166.949219 78.21875 166.785156 C 77.714844 165.789062 75.914062 165.761719 75.238281 166.738281 C 75.136719 166.890625 75.199219 167.171875 75.183594 167.394531 Z M 122.839844 340.664062 C 122.984375 340.816406 123.15625 341.121094 123.261719 341.097656 C 123.566406 341.023438 123.839844 340.816406 124.128906 340.664062 C 123.984375 340.511719 123.808594 340.207031 123.703125 340.230469 C 123.402344 340.304688 123.125 340.511719 122.839844 340.664062 Z M 124.648438 216.585938 C 124.363281 216.433594 124.089844 216.226562 123.785156 216.152344 C 123.679688 216.128906 123.507812 216.433594 123.363281 216.585938 C 123.644531 216.75 123.921875 216.917969 124.191406 217.078125 C 124.363281 216.894531 124.507812 216.738281 124.648438 216.585938 Z M 132.929688 222.222656 C 132.835938 222.378906 133.484375 222.964844 133.792969 223.355469 C 134.089844 223.355469 134.5 223.46875 134.648438 223.320312 C 134.796875 223.175781 134.800781 222.6875 134.660156 222.492188 C 134.199219 221.847656 133.628906 221.039062 132.929688 222.222656 Z M 185.902344 317.8125 C 185.761719 317.660156 185.617188 317.503906 185.445312 317.320312 C 185.175781 317.480469 184.894531 317.644531 184.617188 317.8125 C 184.757812 317.96875 184.933594 318.269531 185.039062 318.246094 C 185.34375 318.175781 185.617188 317.96875 185.902344 317.8125 Z M 191.234375 338.386719 C 191.386719 338.679688 191.539062 338.980469 191.695312 339.277344 C 191.835938 339.125 192.121094 338.9375 192.097656 338.824219 C 192.027344 338.496094 191.835938 338.203125 191.695312 337.894531 C 191.550781 338.050781 191.40625 338.203125 191.234375 338.386719 Z M 184.972656 332.8125 C 185.414062 333.027344 185.839844 333.320312 186.308594 333.425781 C 186.472656 333.460938 186.742188 333.027344 186.964844 332.8125 C 186.53125 332.574219 186.097656 332.339844 185.683594 332.113281 C 185.414062 332.375 185.195312 332.59375 184.972656 332.8125 Z M 131.648438 211.722656 C 132.070312 211.402344 132.601562 211.007812 131.828125 210.519531 C 131.722656 210.453125 131.339844 210.90625 131.085938 211.121094 C 131.085938 211.328125 131.085938 211.53125 131.085938 211.738281 C 131.277344 211.738281 131.519531 211.820312 131.648438 211.722656 Z M 129.199219 332.8125 C 129.421875 333.027344 129.691406 333.460938 129.855469 333.425781 C 130.324219 333.320312 130.75 333.027344 131.191406 332.8125 C 130.96875 332.59375 130.75 332.375 130.484375 332.113281 C 130.066406 332.339844 129.632812 332.574219 129.199219 332.8125 Z M 143.796875 329.496094 C 144.265625 329.394531 144.691406 329.101562 145.136719 328.882812 C 144.914062 328.664062 144.691406 328.445312 144.425781 328.183594 C 144.007812 328.410156 143.574219 328.648438 143.144531 328.882812 C 143.363281 329.101562 143.632812 329.53125 143.796875 329.496094 Z M 130.523438 211.753906 C 130.28125 211.972656 130.09375 212.269531 129.941406 212.570312 C 129.914062 212.621094 130.1875 212.851562 130.335938 213.011719 C 130.585938 212.792969 130.871094 212.605469 131.070312 212.34375 C 131.164062 212.21875 131.160156 211.863281 131.0625 211.761719 C 130.96875 211.65625 130.636719 211.652344 130.523438 211.753906 Z M 135.859375 227.039062 C 136.050781 227.070312 136.398438 226.121094 136.675781 225.621094 C 136.671875 225.316406 136.78125 224.953125 136.652344 224.722656 C 136.371094 224.226562 136.015625 223.476562 135.601562 223.410156 C 133.757812 223.121094 134.921875 224.566406 134.722656 225.195312 C 134.4375 226.097656 134.890625 226.882812 135.859375 227.039062 Z M 147.816406 227.664062 C 148.09375 227.5 148.375 227.332031 148.644531 227.171875 C 148.816406 227.355469 148.960938 227.511719 149.101562 227.664062 C 148.816406 227.820312 148.539062 228.023438 148.238281 228.097656 C 148.132812 228.125 147.957031 227.820312 147.816406 227.664062" fill="#f39cab"/></g></g></svg>