<?xml version="1.0" encoding="UTF-8" standalone="no"?><svg xmlns="http://www.w3.org/2000/svg" xmlns:xlink="http://www.w3.org/1999/xlink" fill="#000000" height="397.7" preserveAspectRatio="xMidYMid meet" version="1" viewBox="-0.2 0.0 500.2 397.7" width="500.2" zoomAndPan="magnify"><defs><clipPath id="a"><path d="M 38 0 L 462 0 L 462 397.738281 L 38 397.738281 Z M 38 0"/></clipPath></defs><g><g clip-path="url(#a)" id="change1_1"><path d="M 306.65625 251.265625 L 308.460938 251.265625 L 308.457031 251.265625 L 323.828125 333.074219 L 310.386719 333.074219 L 314.921875 340.367188 C 316.308594 342.597656 318.746094 343.949219 321.371094 343.949219 L 326.179688 343.949219 L 326.179688 346.941406 L 408.738281 346.941406 L 408.738281 343.949219 L 413.546875 343.949219 C 416.171875 343.949219 418.609375 342.597656 419.996094 340.367188 L 424.53125 333.074219 L 411.089844 333.074219 L 426.460938 251.265625 L 426.457031 251.265625 L 430.027344 251.265625 L 430.027344 234.148438 L 306.65625 234.148438 Z M 94.832031 346.941406 L 123.835938 346.941406 L 123.835938 232.414062 L 94.832031 232.414062 Z M 185.8125 346.941406 L 209.414062 346.941406 L 209.414062 210.460938 L 185.8125 210.460938 Z M 459.875 383.796875 L 459.0625 383.214844 C 459.726562 383.6875 460.648438 383.214844 460.648438 382.398438 L 460.648438 378.976562 L 436.210938 378.976562 L 438.28125 380.058594 L 438.28125 390.914062 C 438.28125 392.65625 439.691406 394.070312 441.433594 394.070312 L 442.019531 394.070312 L 442.019531 396.769531 C 442.019531 397.304688 442.453125 397.738281 442.988281 397.738281 L 454.175781 397.738281 C 454.710938 397.738281 455.144531 397.304688 455.144531 396.769531 L 455.144531 394.070312 L 454.835938 394.070312 C 456.578125 394.070312 457.992188 392.65625 457.992188 390.914062 L 457.992188 390.398438 L 459.097656 390.980469 C 460.265625 391.589844 461.664062 390.742188 461.664062 389.425781 L 461.664062 387.269531 C 461.664062 385.890625 460.996094 384.597656 459.875 383.796875 Z M 448.074219 0.00390625 L 442.433594 0.00390625 L 442.433594 346.941406 L 448.074219 346.941406 Z M 63.070312 382.398438 L 63.070312 378.976562 L 55.546875 378.976562 L 61.484375 383.214844 C 62.148438 383.6875 63.070312 383.214844 63.070312 382.398438 Z M 62.296875 383.796875 L 55.546875 378.976562 L 38.632812 378.976562 L 40.703125 380.058594 L 40.703125 390.914062 C 40.703125 392.65625 42.113281 394.070312 43.855469 394.070312 L 44.441406 394.070312 L 44.441406 396.769531 C 44.441406 397.304688 44.875 397.738281 45.410156 397.738281 L 56.597656 397.738281 C 57.132812 397.738281 57.566406 397.304688 57.566406 396.769531 L 57.566406 394.070312 L 57.257812 394.070312 C 59 394.070312 60.414062 392.65625 60.414062 390.914062 L 60.414062 390.398438 L 61.519531 390.980469 C 62.683594 391.589844 64.085938 390.742188 64.085938 389.425781 L 64.085938 387.269531 C 64.085938 385.890625 63.417969 384.597656 62.296875 383.796875 Z M 50.496094 346.941406 L 44.855469 346.941406 L 44.855469 0.00390625 L 50.496094 0.00390625 L 50.496094 346.941406" fill="#fccf03"/></g><g id="change2_1"><path d="M 303.296875 251.265625 L 308.457031 251.265625 L 311.882812 269.492188 C 319.324219 269.1875 323.027344 278.058594 330.386719 279.21875 C 337.910156 280.402344 343.980469 273.269531 351.203125 270.859375 C 358.628906 268.382812 366.640625 271.078125 374.257812 272.875 C 381.875 274.671875 390.953125 275.167969 396.4375 269.585938 C 399.074219 266.902344 400.703125 262.953125 404.210938 261.589844 C 408.125 260.070312 412.363281 262.503906 415.855469 264.839844 C 417.679688 266.058594 421.445312 267.03125 423.269531 268.253906 L 425.8125 254.722656 L 320.332031 251.398438 C 320.546875 251.539062 320.710938 251.839844 320.894531 252.066406 C 320.585938 252.246094 320.289062 252.535156 319.960938 252.582031 C 319.632812 252.632812 319.257812 252.472656 318.929688 252.339844 C 318.773438 252.277344 318.621094 252.078125 318.558594 251.90625 C 318.464844 251.632812 318.464844 251.453125 318.53125 251.34375 L 316.992188 251.292969 C 316.507812 251.292969 316.019531 251.292969 315.53125 251.292969 C 314.125 250.242188 313.585938 247.851562 311.054688 248.726562 C 311.84375 246.777344 312.949219 247.53125 313.792969 247.347656 C 313.925781 247.320312 318.175781 250.910156 318.519531 251.265625 L 318.628906 251.265625 C 318.710938 251.226562 318.832031 251.226562 318.988281 251.265625 L 319.613281 251.265625 C 319.660156 251.261719 319.699219 251.269531 319.742188 251.265625 L 431.621094 251.265625 C 433.699219 251.265625 435.386719 249.582031 435.386719 247.503906 L 435.386719 237.675781 C 435.386719 235.597656 433.699219 233.910156 431.621094 233.910156 L 303.296875 233.910156 C 301.21875 233.910156 299.53125 235.597656 299.53125 237.675781 L 299.53125 247.503906 C 299.53125 249.582031 301.21875 251.265625 303.296875 251.265625 Z M 500 346.941406 L 500 378.976562 L 0.296875 378.976562 L 0.296875 346.941406 L 123.835938 346.941406 L 123.835938 217.972656 L 158.65625 217.972656 L 158.65625 346.941406 L 326.179688 346.941406 L 326.179688 343.949219 L 321.371094 343.949219 C 318.746094 343.949219 316.308594 342.597656 314.921875 340.367188 L 310.386719 333.074219 L 424.53125 333.074219 L 419.996094 340.367188 C 418.609375 342.597656 416.171875 343.949219 413.546875 343.949219 L 408.738281 343.949219 L 408.738281 346.941406 L 500 346.941406" fill="#fdc8d7"/></g><g id="change3_1"><path d="M 359.464844 168.929688 C 357.375 172.542969 356.445312 177.566406 356.714844 183.929688 C 357.097656 193.046875 357.96875 201.421875 358.851562 208.097656 C 359.894531 210.085938 360.925781 212.144531 361.917969 214.265625 C 362.480469 214.421875 363.058594 214.613281 363.644531 214.84375 C 364.027344 214.585938 364.40625 214.339844 364.785156 214.097656 C 363.484375 204.636719 362.132812 194.335938 361.625 189.003906 C 361.296875 185.539062 360.464844 177.886719 359.464844 168.929688 Z M 366.667969 214.984375 C 366.738281 215.5 366.8125 216.011719 366.882812 216.523438 C 370.550781 218.894531 374.335938 223.074219 377.511719 230.238281 C 379.933594 224.535156 384.695312 219.101562 390.578125 215.429688 C 388.5 213.675781 385.351562 211.730469 381.195312 211.230469 C 376.625 210.675781 371.757812 211.945312 366.667969 214.984375 Z M 365.253906 217.488281 C 364.804688 217.222656 364.359375 216.988281 363.921875 216.78125 C 363.703125 216.933594 363.488281 217.082031 363.273438 217.242188 C 364.316406 219.605469 365.3125 222.035156 366.238281 224.527344 C 365.933594 222.375 365.601562 219.988281 365.253906 217.488281 Z M 361.113281 216.695312 C 360.957031 216.34375 360.796875 215.988281 360.636719 215.640625 C 360.394531 215.589844 360.160156 215.546875 359.929688 215.503906 C 360.007812 215.996094 360.082031 216.460938 360.15625 216.910156 C 360.242188 217.027344 360.328125 217.140625 360.410156 217.257812 C 360.644531 217.066406 360.882812 216.878906 361.113281 216.695312 Z M 359.660156 213.785156 C 359.695312 213.789062 359.730469 213.796875 359.765625 213.800781 C 359.714844 213.695312 359.664062 213.589844 359.613281 213.488281 C 359.628906 213.585938 359.644531 213.683594 359.660156 213.785156 Z M 418.6875 201.117188 C 389.585938 214.238281 391.753906 173.753906 385.253906 184.585938 C 378.75 195.421875 391.132812 201.117188 391.132812 201.117188 C 383.714844 201.847656 357.597656 191.417969 365.328125 163.621094 C 364.117188 164.117188 362.71875 164.9375 361.410156 166.304688 C 361.261719 166.460938 361.121094 166.625 360.980469 166.785156 C 362.078125 176.585938 363.007812 185.117188 363.363281 188.839844 C 363.855469 194.007812 365.148438 203.882812 366.410156 213.113281 C 371.621094 210.140625 376.648438 208.917969 381.433594 209.5 C 386.347656 210.101562 389.945312 212.472656 392.1875 214.484375 C 396.453125 212.136719 401.203125 210.71875 406.023438 210.769531 C 424.253906 210.953125 428.015625 222.609375 428.015625 222.609375 C 419.554688 216.78125 409.40625 222.609375 409.40625 222.609375 C 412.039062 226.929688 422.375 226.554688 430.832031 230.125 C 439.289062 233.695312 445.867188 246.664062 445.867188 246.664062 C 443.425781 244.40625 428.390625 239.898438 429.140625 245.722656 C 429.894531 251.550781 446.054688 257 448.6875 266.585938 C 451.316406 276.171875 447.558594 282.9375 447.558594 282.9375 C 447.558594 279.554688 440.980469 274.664062 439.664062 278.613281 C 438.351562 282.558594 443.234375 294.023438 442.859375 302.667969 C 442.484375 311.316406 427.261719 327.101562 427.261719 327.101562 C 427.261719 327.101562 419.554688 318.078125 417.488281 304.359375 C 415.421875 290.640625 426.132812 282.371094 421.621094 280.304688 C 417.113281 278.238281 409.78125 290.828125 409.78125 290.828125 C 404.710938 288.011719 402.265625 278.613281 401.136719 271.28125 C 400.011719 263.953125 404.332031 257.941406 402.828125 256.8125 C 401.324219 255.683594 398.507812 253.242188 394.5625 261.511719 C 390.613281 269.78125 385.914062 268.464844 385.914062 268.464844 C 378.585938 265.082031 382.53125 252.113281 385.351562 246.101562 C 388.171875 240.085938 388.734375 232.945312 388.734375 232.945312 C 388.734375 232.945312 384.035156 232.757812 382.71875 236.890625 C 381.402344 241.027344 377.269531 244.597656 377.269531 244.597656 C 375.238281 240.59375 375.386719 235.929688 377.0625 231.367188 L 376.261719 231.707031 C 373.519531 225.238281 370.328125 221.246094 367.199219 218.816406 C 368.386719 227.324219 369.375 234.148438 369.398438 234.300781 L 367.695312 234.660156 C 366.117188 228.953125 364.097656 223.480469 361.847656 218.332031 C 361.691406 218.457031 361.535156 218.589844 361.378906 218.714844 C 375.785156 241.453125 349.652344 259.8125 349.652344 259.8125 C 349.652344 259.8125 356.152344 245.570312 347.484375 244.644531 C 338.816406 243.714844 348.46875 271.882812 322.902344 271.574219 C 322.902344 271.574219 321.480469 257.933594 317.148438 258.097656 C 312.8125 258.261719 307.550781 270.027344 311.574219 274.671875 C 311.574219 274.671875 286.808594 280.550781 280.308594 274.671875 C 280.308594 274.671875 280.929688 251.761719 288.046875 241.855469 C 288.046875 241.855469 297.355469 249.597656 302.609375 244.644531 C 307.859375 239.691406 294.550781 232.261719 291.144531 232.570312 C 291.144531 232.570312 299.503906 218.640625 307.550781 215.851562 C 315.601562 213.066406 324.574219 216.78125 329.21875 215.851562 C 333.863281 214.925781 323.339844 205.019531 314.050781 205.945312 C 314.050781 205.945312 337.617188 191.035156 357.519531 213.621094 C 357.636719 213.625 357.75 213.621094 357.871094 213.628906 C 357.640625 212.101562 357.402344 210.429688 357.160156 208.632812 C 350.152344 195.367188 342.363281 185.277344 338.492188 180.613281 C 319.476562 204.089844 307.859375 195.113281 307.859375 195.113281 C 316.527344 194.800781 321.480469 183.347656 321.480469 183.347656 C 321.480469 183.347656 319.933594 176.539062 307.242188 187.378906 C 294.550781 198.21875 275.664062 187.371094 275.664062 187.371094 C 282.476562 187.683594 296.714844 174.0625 295.785156 171.894531 C 294.859375 169.726562 293.621094 169.726562 276.902344 173.753906 C 260.1875 177.777344 250.589844 166.632812 250.589844 166.632812 C 262.355469 164.464844 264.828125 150.84375 262.042969 151.152344 C 259.257812 151.464844 256.472656 153.9375 241.921875 158.890625 C 227.371094 163.84375 214.988281 151.152344 214.988281 151.152344 C 214.988281 151.152344 223.96875 135.363281 235.730469 131.03125 C 247.492188 126.695312 270.710938 132.269531 270.710938 132.269531 C 269.78125 126.695312 258.949219 121.433594 258.949219 121.433594 C 269.78125 113.695312 286.191406 118.339844 290.523438 125.769531 C 294.859375 133.199219 303.527344 141.867188 303.527344 141.867188 C 305.074219 135.984375 299.8125 118.03125 299.8125 118.03125 C 299.8125 118.03125 317.148438 121.125 318.695312 134.128906 C 319.953125 144.683594 326.925781 153.8125 329.5 156.871094 C 329.6875 156.734375 329.894531 156.585938 330.148438 156.414062 C 333.863281 153.9375 328.910156 134.128906 328.910156 134.128906 C 328.910156 134.128906 360.484375 151.773438 340.363281 178.226562 C 340.109375 178.5625 339.855469 178.890625 339.601562 179.214844 C 343.066406 183.375 349.953125 192.199219 356.574219 203.925781 C 355.890625 198.066406 355.277344 191.265625 354.972656 184.003906 C 354.644531 176.210938 356.058594 170.253906 359.167969 166.253906 C 357.492188 151.277344 355.464844 133.574219 354.546875 125.554688 C 329.644531 118.140625 334.792969 91.40625 334.792969 91.40625 C 334.792969 91.40625 339.535156 106.574219 347.070312 106.886719 C 347.070312 106.886719 348.308594 96.359375 340.933594 84.285156 C 333.554688 72.214844 344.078125 63.546875 344.078125 63.546875 C 344.078125 63.546875 345.628906 75.929688 352.4375 78.09375 C 352.4375 78.09375 356.152344 79.335938 353.984375 65.402344 C 351.816406 51.472656 370.394531 41.257812 370.394531 41.257812 C 370.394531 41.257812 370.082031 48.6875 373.488281 52.09375 C 373.488281 52.09375 400.421875 18.65625 416.828125 35.066406 C 416.828125 35.066406 409.089844 54.566406 394.847656 57.972656 C 380.609375 61.378906 393.921875 70.664062 402.589844 66.023438 C 402.589844 66.023438 404.136719 83.050781 388.039062 87.074219 C 371.941406 91.097656 377.511719 99.144531 385.5625 96.050781 C 393.609375 92.953125 400.421875 94.8125 400.421875 94.8125 C 400.421875 94.8125 397.015625 107.503906 386.488281 110.601562 C 375.964844 113.695312 372.25 113.449219 369.773438 117.441406 C 367.296875 121.433594 381.847656 121.191406 386.179688 117.441406 C 386.179688 117.441406 381.0625 132.410156 356.359375 126.058594 C 357.28125 134.085938 359.136719 150.320312 360.730469 164.535156 C 362.574219 162.820312 364.496094 161.96875 365.976562 161.546875 C 375.171875 133.570312 402.277344 135.984375 402.277344 135.984375 C 396.085938 138.152344 384.632812 155.796875 392.0625 156.726562 C 399.492188 157.652344 403.824219 142.796875 409.707031 141.558594 C 415.589844 140.320312 431.066406 151.464844 431.066406 151.464844 C 427.972656 153.320312 422.398438 165.085938 427.660156 166.011719 C 432.925781 166.941406 438.1875 157.652344 438.1875 157.652344 C 453.355469 160.75 465.429688 184.277344 465.429688 184.277344 C 460.785156 192.945312 431.6875 197.898438 431.6875 197.898438 C 431.6875 193.871094 426.113281 182.109375 421.160156 184.585938 C 416.210938 187.0625 418.6875 201.117188 418.6875 201.117188 Z M 94.832031 241.824219 L 68.078125 241.824219 L 68.078125 346.941406 L 94.832031 346.941406 Z M 209.414062 224.324219 L 244.394531 224.324219 L 244.394531 346.941406 L 209.414062 346.941406 L 209.414062 224.324219" fill="#0c1765"/></g><g id="change4_1"><path d="M 350.058594 85.5 L 351.535156 84.574219 C 351.589844 84.652344 356.148438 91.878906 359.976562 94.765625 C 362.285156 88.035156 365.515625 80.359375 369.972656 72.667969 C 363.828125 68.183594 363.90625 55.761719 363.914062 55.636719 L 365.65625 55.757812 C 365.648438 55.871094 365.691406 67.195312 370.863281 71.15625 C 377.800781 59.617188 387.558594 48.1875 401.207031 40.03125 L 402.101562 41.53125 C 388.738281 49.515625 379.175781 60.707031 372.367188 72.019531 C 378.539062 74.574219 391.710938 70.316406 391.847656 70.269531 L 392.390625 71.929688 C 391.941406 72.074219 384.234375 74.570312 377.550781 74.570312 C 375.300781 74.570312 373.171875 74.28125 371.472656 73.53125 C 366.996094 81.25 363.78125 88.953125 361.496094 95.679688 C 365.34375 97.300781 379.113281 98.921875 386.085938 99.570312 L 385.925781 101.308594 C 385.09375 101.230469 366.316406 99.464844 360.945312 97.332031 C 357.332031 108.4375 356.3125 116.476562 356.289062 116.679688 L 354.558594 116.472656 C 354.582031 116.265625 355.636719 107.945312 359.398438 96.492188 C 355.164062 93.585938 350.28125 85.851562 350.058594 85.5 Z M 288.4375 148.941406 C 286.40625 158.582031 266.578125 164.355469 265.707031 164.605469 L 265.230469 162.925781 C 265.433594 162.867188 285.082031 157.148438 286.746094 148.496094 C 260.675781 141.894531 233.207031 145.71875 232.933594 145.78125 L 232.429688 144.109375 C 232.671875 144.03125 260.433594 140.128906 286.894531 146.738281 C 287.121094 137.507812 281.617188 126.371094 281.558594 126.257812 L 283.117188 125.476562 C 283.367188 125.972656 289.035156 137.445312 288.628906 147.1875 C 292.441406 148.210938 296.21875 149.460938 299.867188 150.980469 C 306.300781 153.65625 311.738281 156.085938 316.316406 158.246094 C 316.605469 151.601562 312.605469 139.722656 312.5625 139.59375 L 314.21875 139.035156 C 314.402344 139.585938 318.640625 152.175781 318.011719 159.054688 C 332.46875 165.988281 337.609375 169.949219 337.890625 170.167969 L 336.8125 171.542969 C 336.746094 171.488281 331.671875 167.59375 317.640625 160.824219 C 315.144531 167.96875 299.242188 180.746094 298.53125 181.316406 L 297.441406 179.953125 C 302.21875 176.136719 314.464844 165.425781 316.0625 160.066406 C 311.398438 157.851562 305.828125 155.351562 299.195312 152.589844 C 295.703125 151.132812 292.089844 149.933594 288.4375 148.941406 Z M 457.414062 179.925781 L 456.40625 181.347656 C 456.316406 181.28125 446.960938 174.847656 423.882812 172.703125 C 417.722656 172.128906 411.132812 171.671875 404.722656 171.304688 C 404.453125 179.214844 407.125 191.570312 407.152344 191.699219 L 405.445312 192.070312 C 405.332031 191.539062 402.691406 179.324219 402.980469 171.207031 C 391.679688 170.585938 381.144531 170.242188 374.828125 170.039062 C 370.867188 169.910156 369.097656 169.851562 368.671875 169.792969 L 368.910156 168.0625 C 369.261719 168.113281 371.742188 168.191406 374.886719 168.296875 C 381.214844 168.5 391.78125 168.84375 403.117188 169.46875 C 403.894531 163.589844 408.496094 157.777344 411.027344 154.589844 C 411.601562 153.863281 412.253906 153.042969 412.355469 152.820312 C 412.351562 152.820312 412.277344 152.996094 412.34375 153.238281 L 414.027344 152.773438 C 414.199219 153.398438 413.855469 153.835938 412.394531 155.671875 C 409.988281 158.703125 405.625 164.214844 404.863281 169.566406 C 411.277344 169.933594 417.875 170.390625 424.046875 170.964844 C 447.660156 173.160156 457.027344 179.648438 457.414062 179.925781 Z M 356.875 221.5 C 356.058594 221.699219 355.210938 221.945312 354.347656 222.226562 C 357.167969 229.222656 356.117188 244.039062 356.070312 244.695312 L 354.328125 244.570312 C 354.339844 244.410156 355.410156 229.324219 352.699219 222.792969 C 345.660156 225.367188 337.421875 230.195312 329.230469 235.800781 C 331.714844 242.003906 330.144531 258.589844 330.074219 259.320312 L 328.339844 259.15625 C 328.355469 258.984375 329.886719 242.820312 327.753906 236.820312 C 308.425781 250.273438 289.800781 267.558594 288.390625 269.167969 L 287.03125 268.074219 C 287.230469 267.820312 306.601562 249.4375 326.949219 235.261719 C 323.578125 230.648438 311.210938 226.757812 309.597656 226.484375 L 309.890625 224.761719 C 311.03125 224.953125 324.429688 228.859375 328.382812 234.269531 C 336.511719 228.699219 344.726562 223.882812 351.878906 221.234375 C 348.148438 215.445312 337.0625 209.585938 336.945312 209.527344 L 337.757812 207.980469 C 338.261719 208.242188 349.773438 214.332031 353.566406 220.644531 C 354.554688 220.320312 355.523438 220.035156 356.460938 219.804688 Z M 447.660156 272.167969 L 446.109375 272.964844 C 443.910156 268.667969 431.859375 260.046875 426.445312 260.101562 C 427.894531 263.695312 429.007812 267.117188 429.867188 270.253906 C 437.148438 296.847656 429.925781 318.96875 429.851562 319.1875 L 428.195312 318.632812 C 428.269531 318.417969 435.316406 296.773438 428.183594 270.710938 C 427.324219 267.574219 426.199219 264.144531 424.738281 260.535156 C 420.0625 262.996094 411.742188 276.566406 411.300781 278.265625 C 411.351562 278.066406 411.269531 277.605469 410.835938 277.398438 L 410.074219 278.96875 L 409.570312 278.042969 C 409.6875 276.710938 418.460938 261.832031 424.070312 258.929688 C 421.011719 251.78125 416.601562 244.019531 410.246094 236.515625 C 405.914062 238.550781 395.476562 250.597656 391.664062 255.269531 L 390.3125 254.164062 C 391.703125 252.457031 403.308594 238.367188 409.078125 235.164062 C 404.796875 230.308594 399.671875 225.585938 393.550781 221.230469 C 392.214844 220.28125 392.007812 220.136719 392.011719 219.605469 L 393.757812 219.617188 C 393.757812 219.339844 393.621094 219.136719 393.550781 219.066406 C 393.648438 219.160156 394.109375 219.488281 394.5625 219.808594 C 401.007812 224.390625 406.355469 229.378906 410.8125 234.496094 C 416.695312 233.28125 434.757812 236.667969 435.546875 236.816406 L 435.222656 238.53125 C 430.277344 237.597656 417.445312 235.53125 412.140625 236.058594 C 418.367188 243.558594 422.714844 251.285156 425.746094 258.410156 C 432.0625 257.710938 445.359375 267.675781 447.660156 272.167969 Z M 158.65625 226.636719 L 158.65625 346.941406 L 185.8125 346.941406 L 185.8125 226.636719 L 158.65625 226.636719" fill="#ffffff"/></g><g id="change5_1"><path d="M 253.574219 369.808594 C 253.226562 369.886719 252.914062 370.101562 252.589844 370.261719 C 252.75 370.421875 252.949219 370.738281 253.070312 370.714844 C 253.414062 370.636719 253.730469 370.421875 254.054688 370.261719 C 253.890625 370.101562 253.691406 369.78125 253.574219 369.808594 Z M 368.601562 180.726562 C 368.53125 180.84375 369.011719 181.277344 369.238281 181.5625 C 369.453125 181.5625 369.757812 181.644531 369.867188 181.539062 C 369.976562 181.429688 369.980469 181.070312 369.875 180.929688 C 369.535156 180.453125 369.117188 179.859375 368.601562 180.726562 Z M 369.914062 181.585938 C 369.808594 181.691406 369.804688 182.0625 369.910156 182.191406 C 370.140625 182.464844 370.457031 182.679688 370.773438 182.847656 C 370.828125 182.878906 371.066406 182.570312 371.238281 182.402344 C 371.007812 182.121094 370.808594 181.800781 370.53125 181.578125 C 370.398438 181.472656 370.023438 181.476562 369.914062 181.585938 Z M 355.015625 228.765625 C 354.847656 228.460938 354.671875 228.148438 354.496094 227.832031 C 354.332031 227.992188 354.011719 228.1875 354.035156 228.308594 C 354.113281 228.648438 354.332031 228.957031 354.496094 229.277344 C 354.65625 229.117188 354.820312 228.957031 355.015625 228.765625 Z M 415.621094 223.96875 C 415.699219 224.3125 415.917969 224.617188 416.078125 224.941406 C 416.242188 224.78125 416.40625 224.617188 416.601562 224.425781 C 416.433594 224.121094 416.253906 223.808594 416.078125 223.492188 C 415.917969 223.65625 415.59375 223.851562 415.621094 223.96875 Z M 416.171875 216.28125 C 415.6875 216.617188 415.085938 217.027344 415.96875 217.535156 C 416.085938 217.605469 416.523438 217.132812 416.8125 216.910156 C 416.8125 216.695312 416.8125 216.480469 416.8125 216.265625 C 416.59375 216.265625 416.316406 216.179688 416.171875 216.28125 Z M 416.835938 216.242188 C 416.945312 216.347656 417.320312 216.351562 417.449219 216.246094 C 417.726562 216.019531 417.945312 215.707031 418.117188 215.394531 C 418.144531 215.339844 417.835938 215.105469 417.664062 214.9375 C 417.382812 215.164062 417.054688 215.359375 416.832031 215.636719 C 416.726562 215.765625 416.726562 216.132812 416.835938 216.242188 Z M 350.097656 117.9375 C 350.273438 117.625 350.449219 117.308594 350.617188 117.007812 C 350.421875 116.8125 350.261719 116.652344 350.097656 116.492188 C 349.933594 116.8125 349.714844 117.121094 349.636719 117.464844 C 349.609375 117.582031 349.933594 117.777344 350.097656 117.9375 Z M 392.367188 71.394531 C 392.714844 71.320312 393.027344 71.105469 393.351562 70.945312 C 393.1875 70.78125 393.027344 70.621094 392.828125 70.429688 C 392.523438 70.597656 392.203125 70.769531 391.886719 70.945312 C 392.050781 71.105469 392.246094 71.421875 392.367188 71.394531 Z M 377.222656 124.445312 C 377.058594 124.285156 376.898438 124.125 376.699219 123.929688 C 376.394531 124.097656 376.074219 124.273438 375.757812 124.445312 C 375.921875 124.605469 376.117188 124.925781 376.238281 124.898438 C 376.585938 124.820312 376.898438 124.605469 377.222656 124.445312 Z M 346.21875 108.746094 C 346.050781 108.445312 345.875 108.132812 345.695312 107.816406 C 345.535156 107.976562 345.210938 108.171875 345.238281 108.292969 C 345.316406 108.632812 345.535156 108.941406 345.695312 109.261719 C 345.859375 109.101562 346.023438 108.941406 346.21875 108.746094 Z M 392.367188 137.910156 C 392.714844 137.835938 393.027344 137.621094 393.351562 137.460938 C 393.1875 137.300781 393.027344 137.136719 392.828125 136.945312 C 392.523438 137.113281 392.203125 137.285156 391.886719 137.460938 C 392.050781 137.621094 392.246094 137.9375 392.367188 137.910156 Z M 235.203125 140.558594 C 235.398438 140.753906 235.5625 140.914062 235.726562 141.074219 C 235.890625 140.753906 236.109375 140.445312 236.183594 140.101562 C 236.210938 139.984375 235.890625 139.789062 235.726562 139.628906 C 235.550781 139.941406 235.375 140.257812 235.203125 140.558594 Z M 233.527344 138.90625 C 233.199219 138.742188 232.886719 138.527344 232.542969 138.453125 C 232.421875 138.425781 232.222656 138.742188 232.0625 138.90625 C 232.378906 139.078125 232.699219 139.253906 233.003906 139.421875 C 233.199219 139.226562 233.363281 139.066406 233.527344 138.90625 Z M 424.144531 312.421875 C 423.980469 312.261719 423.78125 311.945312 423.660156 311.972656 C 423.316406 312.046875 423.003906 312.261719 422.679688 312.421875 C 422.839844 312.582031 423.039062 312.902344 423.160156 312.875 C 423.503906 312.800781 423.816406 312.582031 424.144531 312.421875 Z M 418.488281 312.214844 C 418.660156 312.515625 418.835938 312.832031 419.011719 313.144531 C 419.175781 312.984375 419.496094 312.789062 419.472656 312.671875 C 419.394531 312.328125 419.175781 312.019531 419.011719 311.699219 C 418.847656 311.859375 418.6875 312.019531 418.488281 312.214844 Z M 461.28125 366.375 C 461.628906 366.300781 461.941406 366.085938 462.269531 365.925781 C 462.105469 365.761719 461.90625 365.445312 461.785156 365.472656 C 461.441406 365.546875 461.128906 365.761719 460.800781 365.925781 C 460.964844 366.085938 461.160156 366.402344 461.28125 366.375 Z M 86.414062 344.6875 C 86.535156 344.714844 86.734375 344.394531 86.898438 344.234375 C 86.578125 344.0625 86.261719 343.886719 85.953125 343.71875 C 85.757812 343.914062 85.59375 344.074219 85.429688 344.234375 C 85.757812 344.394531 86.070312 344.609375 86.414062 344.6875 Z M 484.261719 348.570312 C 484.097656 348.410156 483.898438 348.09375 483.777344 348.121094 C 483.433594 348.195312 483.121094 348.410156 482.796875 348.570312 C 482.957031 348.734375 483.15625 349.050781 483.277344 349.023438 C 483.621094 348.949219 483.9375 348.734375 484.261719 348.570312 Z M 347.898438 254.582031 C 348.214844 254.757812 348.535156 254.929688 348.84375 255.097656 C 349.035156 254.90625 349.199219 254.742188 349.363281 254.582031 C 349.035156 254.421875 348.722656 254.207031 348.378906 254.132812 C 348.257812 254.105469 348.058594 254.421875 347.898438 254.582031 Z M 317.105469 254.582031 C 317.269531 254.742188 317.46875 255.0625 317.585938 255.035156 C 317.933594 254.960938 318.246094 254.742188 318.570312 254.582031 C 318.40625 254.421875 318.246094 254.261719 318.050781 254.070312 C 317.742188 254.238281 317.425781 254.410156 317.105469 254.582031 Z M 434.40625 260.367188 C 434.570312 260.527344 434.769531 260.847656 434.890625 260.820312 C 435.234375 260.742188 435.546875 260.527344 435.875 260.367188 C 435.710938 260.207031 435.550781 260.046875 435.351562 259.851562 C 435.046875 260.019531 434.726562 260.195312 434.40625 260.367188 Z M 443.480469 247.601562 C 443.453125 247.71875 443.777344 247.914062 443.9375 248.074219 C 444.113281 247.761719 444.289062 247.449219 444.460938 247.144531 C 444.265625 246.953125 444.101562 246.789062 443.9375 246.632812 C 443.773438 246.953125 443.558594 247.261719 443.480469 247.601562 Z M 428.269531 286.644531 C 428.191406 286.300781 427.972656 285.992188 427.808594 285.671875 C 427.644531 285.832031 427.324219 286.027344 427.351562 286.148438 C 427.429688 286.488281 427.644531 286.796875 427.808594 287.117188 C 427.972656 286.957031 428.296875 286.761719 428.269531 286.644531 Z M 81.765625 297.238281 C 81.929688 297.078125 82.09375 296.917969 82.289062 296.726562 C 82.117188 296.421875 81.941406 296.109375 81.765625 295.792969 C 81.601562 295.953125 81.28125 296.152344 81.308594 296.269531 C 81.382812 296.609375 81.601562 296.917969 81.765625 297.238281 Z M 311.515625 273.132812 C 311.59375 273.472656 311.8125 273.78125 311.972656 274.105469 C 312.136719 273.945312 312.300781 273.78125 312.492188 273.589844 C 312.324219 273.285156 312.148438 272.972656 311.972656 272.65625 C 311.8125 272.820312 311.488281 273.015625 311.515625 273.132812 Z M 341.300781 272.65625 C 341.476562 272.34375 341.648438 272.03125 341.820312 271.726562 C 341.625 271.53125 341.460938 271.371094 341.300781 271.210938 C 341.136719 271.53125 340.917969 271.84375 340.839844 272.183594 C 340.8125 272.300781 341.136719 272.496094 341.300781 272.65625 Z M 174.664062 270.695312 C 174.492188 270.394531 174.316406 270.078125 174.140625 269.765625 C 173.980469 269.925781 173.65625 270.121094 173.683594 270.242188 C 173.761719 270.582031 173.980469 270.890625 174.140625 271.210938 C 174.304688 271.050781 174.46875 270.890625 174.664062 270.695312 Z M 175.859375 281.605469 C 175.515625 281.679688 175.199219 281.898438 174.875 282.058594 C 175.039062 282.21875 175.234375 282.535156 175.355469 282.507812 C 175.703125 282.433594 176.015625 282.21875 176.339844 282.058594 C 176.179688 281.898438 175.980469 281.578125 175.859375 281.605469 Z M 329.078125 364.253906 C 329.011719 364.375 329.027344 364.621094 329.113281 364.734375 C 329.660156 365.460938 331.105469 365.433594 331.535156 364.707031 C 331.523438 364.542969 331.574219 364.332031 331.488281 364.222656 C 330.941406 363.496094 329.484375 363.519531 329.078125 364.253906 Z M 346.1875 302.089844 C 345.804688 301.886719 345.394531 301.738281 345.003906 301.582031 C 344.277344 301.519531 343.558594 301.703125 343.777344 302.519531 C 343.988281 303.300781 345.605469 303.28125 346.152344 302.558594 C 346.234375 302.445312 346.246094 302.121094 346.1875 302.089844 Z M 411.679688 216.261719 C 410.628906 217.230469 410.628906 218.191406 411.679688 219.160156 C 412.734375 218.191406 412.734375 217.230469 411.679688 216.261719 Z M 348.84375 244.945312 C 349.050781 244.566406 349.199219 244.160156 349.359375 243.777344 C 349.425781 243.058594 349.234375 242.351562 348.410156 242.570312 C 347.617188 242.777344 347.636719 244.371094 348.367188 244.910156 C 348.480469 244.992188 348.8125 245.003906 348.84375 244.945312 Z M 237.191406 243.734375 C 236.140625 244.703125 236.140625 245.664062 237.191406 246.632812 C 238.246094 245.664062 238.246094 244.703125 237.191406 243.734375 Z M 169.015625 273.382812 C 168.03125 272.34375 167.054688 272.34375 166.074219 273.382812 C 167.054688 274.421875 168.03125 274.421875 169.015625 273.382812 Z M 455.449219 375.65625 C 455.046875 376.011719 455.027344 376.855469 454.984375 377.496094 C 454.976562 377.628906 455.75 378.023438 455.90625 377.917969 C 456.660156 377.417969 457.332031 376.789062 458.03125 376.203125 C 457.648438 375.828125 457.488281 375.53125 457.3125 375.523438 C 456.675781 375.496094 455.824219 375.332031 455.449219 375.65625 Z M 366.679688 176.277344 C 366.015625 175.394531 365.101562 175.570312 364.234375 176.246094 C 364.417969 176.585938 364.546875 176.9375 364.769531 177.214844 C 365.195312 177.75 365.679688 178.242188 366.132812 178.742188 C 367.078125 177.972656 367.277344 177.078125 366.679688 176.277344 Z M 460.265625 371.027344 C 459.589844 371.121094 459.15625 371.785156 459.351562 372.550781 C 459.449219 372.953125 459.695312 373.324219 459.902344 373.695312 C 459.925781 373.734375 463.542969 371.191406 463.734375 370.984375 C 462.574219 370.984375 461.398438 370.867188 460.265625 371.027344 Z M 388.933594 375.308594 C 389.019531 376.398438 389.605469 376.925781 390.757812 376.769531 C 391.480469 376.558594 391.976562 376.238281 391.90625 375.339844 C 391.816406 374.246094 391.226562 373.679688 390.082031 373.890625 C 389.347656 374.027344 388.859375 374.40625 388.933594 375.308594 Z M 374.628906 316.039062 C 373.476562 315.878906 372.890625 316.410156 372.804688 317.5 C 372.730469 318.398438 373.21875 318.78125 373.953125 318.914062 C 375.097656 319.128906 375.6875 318.558594 375.777344 317.46875 C 375.847656 316.566406 375.351562 316.246094 374.628906 316.039062 Z M 481.214844 362.996094 C 481.808594 363.46875 481.984375 363.734375 482.167969 363.738281 C 484.324219 363.765625 486.488281 363.78125 488.648438 363.734375 C 489.0625 363.722656 489.472656 363.433594 489.886719 363.273438 C 490.320312 362.347656 490.261719 361.53125 489.367188 360.886719 C 487.351562 363.855469 483.90625 361.214844 481.214844 362.996094 Z M 351.179688 337.828125 C 350.980469 337.949219 350.773438 338.070312 350.566406 338.195312 C 350.671875 338.308594 350.800781 338.53125 350.878906 338.511719 C 351.101562 338.457031 351.304688 338.308594 351.515625 338.195312 C 351.410156 338.078125 351.304688 337.964844 351.179688 337.828125 Z M 365.726562 190.367188 C 365.828125 190.480469 365.960938 190.703125 366.035156 190.6875 C 366.257812 190.632812 366.460938 190.480469 366.671875 190.367188 C 366.566406 190.253906 366.4375 190.03125 366.359375 190.050781 C 366.136719 190.101562 365.9375 190.253906 365.726562 190.367188 Z M 362.882812 348.386719 C 363.09375 348.5 363.296875 348.652344 363.519531 348.707031 C 363.597656 348.726562 363.726562 348.5 363.828125 348.386719 C 363.625 348.265625 363.417969 348.144531 363.21875 348.027344 C 363.09375 348.160156 362.988281 348.273438 362.882812 348.386719 Z M 402.6875 202.109375 C 402.617188 202.183594 402.613281 202.4375 402.683594 202.539062 C 402.902344 202.871094 403.171875 203.292969 403.503906 202.679688 C 403.550781 202.597656 403.238281 202.292969 403.09375 202.089844 C 402.953125 202.089844 402.757812 202.03125 402.6875 202.109375 Z M 284.566406 128.878906 C 284.488281 128.859375 284.359375 129.085938 284.253906 129.199219 C 284.460938 129.320312 284.664062 129.441406 284.863281 129.558594 C 284.992188 129.425781 285.097656 129.3125 285.199219 129.199219 C 284.992188 129.085938 284.789062 128.933594 284.566406 128.878906 Z M 284.390625 161.675781 C 284.5 161.886719 284.613281 162.109375 284.726562 162.332031 C 284.832031 162.21875 285.039062 162.078125 285.023438 161.996094 C 284.976562 161.757812 284.832031 161.539062 284.726562 161.3125 C 284.621094 161.425781 284.515625 161.539062 284.390625 161.675781 Z M 256.46875 371.519531 C 256.246094 371.570312 256.042969 371.722656 255.835938 371.835938 C 255.9375 371.949219 256.042969 372.0625 256.171875 372.199219 C 256.367188 372.082031 256.574219 371.957031 256.78125 371.835938 C 256.675781 371.722656 256.546875 371.5 256.46875 371.519531 Z M 326.867188 147.023438 C 326.9375 146.945312 326.941406 146.683594 326.871094 146.59375 C 326.722656 146.402344 326.519531 146.253906 326.3125 146.132812 C 326.277344 146.109375 326.125 146.328125 326.015625 146.445312 C 326.164062 146.644531 326.289062 146.871094 326.472656 147.027344 C 326.558594 147.101562 326.796875 147.097656 326.867188 147.023438 Z M 310.46875 275.6875 C 310.246094 275.738281 310.042969 275.890625 309.832031 276.003906 C 309.9375 276.117188 310.066406 276.34375 310.144531 276.324219 C 310.367188 276.269531 310.570312 276.117188 310.777344 276.003906 C 310.675781 275.890625 310.546875 275.667969 310.46875 275.6875 Z M 488.566406 351.128906 C 488.34375 351.179688 488.140625 351.332031 487.933594 351.445312 C 488.035156 351.558594 488.164062 351.78125 488.242188 351.765625 C 488.464844 351.710938 488.667969 351.558594 488.878906 351.445312 C 488.773438 351.332031 488.644531 351.109375 488.566406 351.128906 Z M 91.945312 290.277344 C 91.734375 290.164062 91.53125 290.011719 91.308594 289.957031 C 91.230469 289.941406 91.101562 290.164062 90.996094 290.277344 C 91.203125 290.398438 91.410156 290.523438 91.605469 290.640625 C 91.734375 290.503906 91.839844 290.390625 91.945312 290.277344 Z M 150.679688 288.238281 C 150.890625 288.351562 151.09375 288.503906 151.316406 288.558594 C 151.394531 288.574219 151.519531 288.351562 151.625 288.238281 C 151.421875 288.117188 151.214844 287.992188 151.015625 287.875 C 150.890625 288.011719 150.785156 288.125 150.679688 288.238281 Z M 70.628906 289.769531 C 70.523438 289.882812 70.316406 290.019531 70.332031 290.101562 C 70.382812 290.34375 70.523438 290.5625 70.628906 290.785156 C 70.734375 290.675781 70.941406 290.535156 70.925781 290.453125 C 70.875 290.210938 70.734375 289.992188 70.628906 289.769531 Z M 205.015625 273.601562 C 204.886719 273.738281 204.78125 273.851562 204.679688 273.964844 C 204.886719 274.078125 205.089844 274.230469 205.3125 274.285156 C 205.390625 274.304688 205.519531 274.078125 205.625 273.964844 C 205.417969 273.84375 205.214844 273.722656 205.015625 273.601562 Z M 214.921875 231.992188 C 214.9375 231.90625 214.730469 231.769531 214.625 231.65625 C 214.511719 231.878906 214.398438 232.101562 214.289062 232.3125 C 214.414062 232.449219 214.519531 232.5625 214.625 232.675781 C 214.730469 232.449219 214.871094 232.230469 214.921875 231.992188 Z M 452.40625 390.695312 C 451.726562 391.375 451.726562 392.054688 452.40625 392.738281 C 453.085938 392.054688 453.085938 391.375 452.40625 390.695312 Z M 254.554688 375.210938 C 255.066406 375.0625 255.054688 373.9375 254.582031 373.558594 C 254.507812 373.5 254.296875 373.492188 254.273438 373.535156 C 254.144531 373.800781 254.046875 374.085938 253.941406 374.359375 C 253.898438 374.863281 254.019531 375.363281 254.554688 375.210938 Z M 170.574219 294.355469 C 169.941406 293.621094 169.308594 293.621094 168.675781 294.355469 C 169.308594 295.085938 169.941406 295.085938 170.574219 294.355469 Z M 370.792969 128.492188 C 371.324219 128.648438 371.449219 128.148438 371.40625 127.640625 C 371.300781 127.371094 371.207031 127.085938 371.074219 126.816406 C 371.054688 126.777344 370.839844 126.785156 370.765625 126.84375 C 370.292969 127.222656 370.28125 128.347656 370.792969 128.492188 Z M 366.820312 192.242188 C 366.828125 192.359375 366.796875 192.507812 366.851562 192.585938 C 367.203125 193.097656 368.144531 193.082031 368.410156 192.5625 C 368.453125 192.476562 368.441406 192.304688 368.386719 192.226562 C 368.035156 191.714844 367.101562 191.734375 366.820312 192.242188 Z M 222.679688 265.808594 C 222.046875 265.078125 221.414062 265.078125 220.78125 265.808594 C 221.414062 266.539062 222.046875 266.539062 222.679688 265.808594 Z M 370.492188 341.757812 C 372.472656 341.65625 372.476562 341.644531 372.003906 339.847656 C 371.273438 340.285156 370.605469 340.773438 370.464844 341.753906 C 369.828125 341.929688 368.988281 341.277344 368.648438 342.363281 C 369.183594 342.742188 369.421875 343.574219 370.367188 343.59375 C 370.410156 342.972656 370.453125 342.371094 370.492188 341.757812 Z M 300.03125 130.921875 C 299.507812 130.503906 298.921875 130.644531 298.480469 131.21875 C 299 131.683594 299.296875 132.441406 300.066406 132.601562 C 300.496094 132.019531 300.609375 131.382812 300.03125 130.921875 Z M 327.894531 148.609375 C 328.476562 149.289062 329.113281 149.394531 329.652344 148.492188 C 328.882812 147.613281 328.210938 146.597656 326.878906 147.046875 C 326.777344 147.886719 327.5 148.144531 327.894531 148.609375 Z M 231.421875 142.960938 C 230.675781 142.851562 230.300781 143.222656 230.242188 143.992188 C 230.195312 144.628906 230.511719 144.894531 230.984375 144.988281 C 231.726562 145.140625 232.105469 144.738281 232.164062 143.96875 C 232.210938 143.335938 231.890625 143.109375 231.421875 142.960938 Z M 298.9375 153.15625 C 299.652344 151.347656 299.554688 151.121094 298.011719 151.125 C 297.585938 151.128906 297.160156 151.234375 296.210938 151.363281 C 297.289062 152.285156 298.503906 152.148438 298.9375 153.15625 Z M 450.996094 389.6875 C 450.941406 388.921875 450.5625 388.546875 449.820312 388.65625 C 449.53125 388.75 449.3125 388.882812 449.1875 389.113281 C 449.15625 389.128906 449.121094 389.152344 449.089844 389.167969 C 449.105469 389.183594 449.117188 389.199219 449.132812 389.21875 C 449.089844 389.339844 449.0625 389.484375 449.078125 389.667969 C 449.132812 390.433594 449.515625 390.835938 450.257812 390.6875 C 450.730469 390.589844 451.046875 390.324219 450.996094 389.6875 Z M 261.523438 373.882812 C 261.085938 373.410156 260.65625 372.945312 260.039062 372.285156 C 259.410156 372.738281 258.441406 371.800781 257.710938 372.882812 C 258.351562 373.214844 259.070312 373.4375 259.601562 373.902344 C 260.316406 374.527344 260.886719 374.582031 261.523438 373.882812 Z M 341.4375 316.136719 C 341.339844 316.015625 341.230469 315.894531 341.117188 315.792969 C 340.28125 315.042969 340.03125 315.027344 339.226562 315.746094 C 338.878906 316.058594 338.574219 316.4375 338.175781 316.863281 C 339.492188 317.53125 340.738281 317.441406 342.078125 316.9375 C 341.8125 316.601562 341.628906 316.367188 341.4375 316.136719 Z M 400.980469 201.070312 C 400.191406 201.078125 399.398438 201.015625 398.617188 201.085938 C 397.765625 201.167969 397.097656 200.917969 396.625 200.140625 C 396.011719 200.546875 395.460938 200.976562 395.132812 202.089844 C 397.710938 202.089844 400.191406 202.089844 402.671875 202.089844 C 402.09375 201.070312 402.09375 201.0625 400.980469 201.070312 Z M 378.988281 371.339844 C 378.984375 370.460938 377.707031 369.203125 376.84375 369.3125 C 376.597656 369.339844 376.277344 369.597656 376.171875 369.839844 C 376.054688 370.113281 376.144531 370.488281 376.144531 370.816406 C 376.144531 371.476562 376.089844 372.144531 376.175781 372.792969 C 376.207031 373.011719 376.570312 373.292969 376.820312 373.34375 C 377.621094 373.503906 378.992188 372.195312 378.988281 371.339844 Z M 123.835938 363.066406 C 122.707031 362.5625 121.726562 362.371094 120.878906 363.4375 C 120.394531 364.046875 119.71875 363.609375 119.148438 363.757812 C 118.875 363.828125 118.621094 363.988281 118.300781 364.140625 C 118.300781 365.234375 118.300781 366.355469 118.300781 367.699219 C 120.003906 368.226562 120.980469 367.402344 122.019531 366.8125 C 122.269531 366.667969 122.738281 366.625 122.777344 366.449219 C 122.914062 365.832031 122.820312 365.144531 122.992188 364.542969 C 123.140625 364.023438 123.53125 363.578125 123.835938 363.066406 Z M 440.875 165.199219 C 441.097656 165.144531 441.300781 164.992188 441.511719 164.882812 C 441.40625 164.765625 441.277344 164.542969 441.199219 164.5625 C 440.976562 164.613281 440.773438 164.765625 440.5625 164.878906 C 440.671875 164.992188 440.796875 165.21875 440.875 165.199219 Z M 438.808594 353.632812 C 438.933594 353.769531 439.039062 353.882812 439.144531 353.996094 C 439.25 353.769531 439.390625 353.550781 439.4375 353.3125 C 439.457031 353.226562 439.25 353.089844 439.144531 352.976562 C 439.03125 353.195312 438.914062 353.417969 438.808594 353.632812 Z M 430.453125 350.109375 C 430.378906 350.089844 430.25 350.3125 430.144531 350.425781 C 430.351562 350.550781 430.554688 350.671875 430.753906 350.789062 C 430.882812 350.652344 430.984375 350.539062 431.09375 350.425781 C 430.882812 350.3125 430.679688 350.160156 430.453125 350.109375 Z M 392.25 68.027344 C 392.460938 68.140625 392.664062 68.292969 392.886719 68.347656 C 392.964844 68.367188 393.09375 68.140625 393.199219 68.027344 C 392.992188 67.90625 392.785156 67.785156 392.585938 67.664062 C 392.460938 67.800781 392.355469 67.914062 392.25 68.027344 Z M 382.304688 221.460938 C 382.417969 221.238281 382.53125 221.019531 382.640625 220.804688 C 382.515625 220.667969 382.40625 220.554688 382.304688 220.441406 C 382.199219 220.667969 382.058594 220.886719 382.007812 221.125 C 381.988281 221.210938 382.199219 221.347656 382.304688 221.460938 Z M 382.007812 330.210938 C 381.988281 330.296875 382.199219 330.433594 382.304688 330.546875 C 382.417969 330.324219 382.53125 330.105469 382.640625 329.890625 C 382.515625 329.753906 382.40625 329.640625 382.304688 329.527344 C 382.199219 329.753906 382.058594 329.972656 382.007812 330.210938 Z M 380.246094 240.640625 C 380.46875 240.589844 380.671875 240.4375 380.882812 240.320312 C 380.777344 240.210938 380.671875 240.097656 380.546875 239.960938 C 380.347656 240.078125 380.140625 240.199219 379.9375 240.320312 C 380.039062 240.4375 380.167969 240.660156 380.246094 240.640625 Z M 376.28125 269.015625 C 376.410156 269.152344 376.515625 269.265625 376.617188 269.378906 C 376.726562 269.152344 376.867188 268.933594 376.914062 268.695312 C 376.933594 268.609375 376.726562 268.472656 376.617188 268.359375 C 376.507812 268.578125 376.390625 268.800781 376.28125 269.015625 Z M 417.191406 159.082031 C 417.414062 159.027344 417.617188 158.878906 417.828125 158.761719 C 417.722656 158.648438 417.59375 158.425781 417.519531 158.445312 C 417.292969 158.496094 417.09375 158.648438 416.882812 158.761719 C 416.984375 158.875 417.113281 159.101562 417.191406 159.082031 Z M 411.019531 155.878906 C 410.972656 155.640625 410.828125 155.421875 410.722656 155.195312 C 410.617188 155.308594 410.511719 155.421875 410.386719 155.558594 C 410.496094 155.769531 410.609375 155.992188 410.722656 156.214844 C 410.828125 156.101562 411.035156 155.964844 411.019531 155.878906 Z M 400.601562 304.375 C 400.617188 304.292969 400.40625 304.152344 400.304688 304.039062 C 400.1875 304.261719 400.074219 304.484375 399.964844 304.695312 C 400.09375 304.832031 400.195312 304.945312 400.304688 305.058594 C 400.40625 304.832031 400.550781 304.613281 400.601562 304.375 Z M 165.363281 246.949219 C 165.257812 247.0625 165.050781 247.199219 165.066406 247.285156 C 165.117188 247.523438 165.257812 247.742188 165.363281 247.96875 C 165.46875 247.855469 165.574219 247.742188 165.699219 247.605469 C 165.589844 247.390625 165.476562 247.171875 165.363281 246.949219 Z M 196.921875 213.640625 C 196.9375 213.558594 196.730469 213.417969 196.625 213.304688 C 196.511719 213.527344 196.398438 213.75 196.289062 213.964844 C 196.414062 214.097656 196.519531 214.210938 196.625 214.324219 C 196.730469 214.097656 196.871094 213.882812 196.921875 213.640625 Z M 188.882812 213.496094 C 188.804688 213.476562 188.679688 213.703125 188.574219 213.816406 C 188.777344 213.9375 188.984375 214.058594 189.183594 214.179688 C 189.308594 214.042969 189.414062 213.929688 189.519531 213.816406 C 189.308594 213.703125 189.105469 213.550781 188.882812 213.496094 Z M 184.605469 252.730469 C 184.554688 252.492188 184.414062 252.273438 184.308594 252.046875 C 184.203125 252.160156 183.996094 252.296875 184.015625 252.382812 C 184.0625 252.621094 184.203125 252.839844 184.308594 253.066406 C 184.414062 252.953125 184.621094 252.816406 184.605469 252.730469 Z M 181.941406 250.515625 C 182.148438 250.640625 182.351562 250.761719 182.550781 250.878906 C 182.679688 250.742188 182.78125 250.628906 182.890625 250.515625 C 182.679688 250.402344 182.476562 250.253906 182.253906 250.199219 C 182.175781 250.179688 182.046875 250.402344 181.941406 250.515625 Z M 199.941406 221.972656 C 200.046875 222.085938 200.152344 222.199219 200.277344 222.335938 C 200.476562 222.214844 200.683594 222.09375 200.886719 221.972656 C 200.78125 221.859375 200.65625 221.632812 200.578125 221.652344 C 200.355469 221.707031 200.152344 221.859375 199.941406 221.972656 Z M 197.667969 219.3125 C 197.703125 219.332031 197.859375 219.113281 197.96875 218.996094 C 197.820312 218.800781 197.691406 218.570312 197.511719 218.414062 C 197.425781 218.34375 197.238281 218.402344 197.097656 218.402344 C 197.097656 218.554688 197.042969 218.757812 197.109375 218.847656 C 197.257812 219.039062 197.464844 219.191406 197.667969 219.3125 Z M 1.949219 360.621094 C 2.152344 360.742188 2.359375 360.867188 2.558594 360.984375 C 2.683594 360.847656 2.789062 360.734375 2.894531 360.621094 C 2.683594 360.507812 2.480469 360.355469 2.257812 360.304688 C 2.179688 360.285156 2.050781 360.507812 1.949219 360.621094 Z M 304.148438 235.226562 C 303.941406 235.101562 303.734375 234.980469 303.539062 234.863281 C 303.410156 234.996094 303.304688 235.113281 303.199219 235.226562 C 303.410156 235.339844 303.613281 235.488281 303.835938 235.542969 C 303.914062 235.5625 304.042969 235.339844 304.148438 235.226562 Z M 237.199219 325.257812 C 237.421875 325.203125 237.625 325.054688 237.835938 324.941406 C 237.730469 324.828125 237.625 324.714844 237.496094 324.578125 C 237.300781 324.695312 237.09375 324.816406 236.886719 324.941406 C 236.992188 325.054688 237.121094 325.277344 237.199219 325.257812 Z M 358.78125 269.570312 C 358.558594 269.621094 358.355469 269.773438 358.144531 269.886719 C 358.25 270 358.355469 270.113281 358.484375 270.25 C 358.683594 270.132812 358.886719 270.011719 359.09375 269.886719 C 358.988281 269.773438 358.859375 269.550781 358.78125 269.570312 Z M 366.0625 71.742188 C 365.9375 71.878906 365.828125 71.992188 365.726562 72.105469 C 365.9375 72.21875 366.136719 72.371094 366.359375 72.425781 C 366.4375 72.445312 366.566406 72.21875 366.671875 72.105469 C 366.46875 71.984375 366.261719 71.863281 366.0625 71.742188 Z M 354.535156 214.660156 C 354.585938 214.902344 354.726562 215.117188 354.828125 215.34375 C 354.9375 215.230469 355.039062 215.117188 355.167969 214.980469 C 355.058594 214.769531 354.945312 214.546875 354.828125 214.324219 C 354.726562 214.4375 354.515625 214.574219 354.535156 214.660156 Z M 14.261719 351.445312 C 14.894531 352.179688 15.527344 352.179688 16.160156 351.445312 C 15.527344 350.714844 14.894531 350.714844 14.261719 351.445312 Z M 396.828125 225.179688 C 396.867188 225.15625 396.863281 224.929688 396.808594 224.847656 C 396.453125 224.339844 395.410156 224.324219 395.273438 224.878906 C 395.132812 225.449219 395.59375 225.582031 396.066406 225.535156 C 396.316406 225.425781 396.582031 225.320312 396.828125 225.179688 Z M 410.574219 203.96875 C 410.679688 203.960938 410.820312 203.996094 410.890625 203.9375 C 411.367188 203.558594 411.351562 202.542969 410.871094 202.261719 C 410.789062 202.214844 410.628906 202.226562 410.554688 202.285156 C 410.078125 202.664062 410.097656 203.671875 410.574219 203.96875 Z M 366.058594 161.507812 C 365.542969 161.652344 365.554688 162.777344 366.03125 163.15625 C 366.105469 163.214844 366.316406 163.222656 366.335938 163.183594 C 366.46875 162.914062 366.566406 162.628906 366.671875 162.359375 C 366.710938 161.851562 366.589844 161.351562 366.058594 161.507812 Z M 368.894531 144.148438 C 368.410156 144.433594 368.398438 145.445312 368.871094 145.824219 C 368.945312 145.882812 369.082031 145.851562 369.191406 145.859375 C 369.664062 145.558594 369.683594 144.554688 369.210938 144.175781 C 369.136719 144.113281 368.976562 144.101562 368.894531 144.148438 Z M 374.25 90.457031 C 374.882812 91.191406 375.515625 91.191406 376.148438 90.457031 C 375.515625 89.726562 374.882812 89.726562 374.25 90.457031 Z M 357.996094 204.800781 C 357.988281 204.6875 358.019531 204.535156 357.96875 204.460938 C 357.613281 203.949219 356.671875 203.964844 356.410156 204.484375 C 356.363281 204.570312 356.378906 204.742188 356.433594 204.820312 C 356.785156 205.332031 357.71875 205.3125 357.996094 204.800781 Z M 433.753906 351.628906 C 433.808594 351.550781 433.820312 351.375 433.777344 351.289062 C 433.511719 350.769531 432.570312 350.753906 432.21875 351.265625 C 432.164062 351.34375 432.195312 351.492188 432.1875 351.609375 C 432.46875 352.117188 433.398438 352.140625 433.753906 351.628906 Z M 428.867188 252.214844 C 428.789062 252.167969 428.628906 252.183594 428.554688 252.238281 C 428.078125 252.617188 428.097656 253.625 428.574219 253.925781 C 428.679688 253.914062 428.816406 253.949219 428.890625 253.890625 C 429.367188 253.511719 429.351562 252.5 428.867188 252.214844 Z M 428.070312 306.769531 C 428.125 306.691406 428.136719 306.519531 428.09375 306.433594 C 427.828125 305.910156 426.886719 305.898438 426.535156 306.40625 C 426.480469 306.488281 426.511719 306.636719 426.503906 306.75 C 426.78125 307.261719 427.71875 307.28125 428.070312 306.769531 Z M 183.046875 320.703125 C 183.003906 320.789062 183.015625 320.964844 183.070312 321.042969 C 183.421875 321.554688 184.355469 321.535156 184.632812 321.023438 C 184.625 320.90625 184.65625 320.761719 184.605469 320.679688 C 184.25 320.171875 183.308594 320.183594 183.046875 320.703125 Z M 183.214844 256.292969 C 182.734375 256.578125 182.71875 257.589844 183.195312 257.96875 C 183.265625 258.027344 183.40625 257.992188 183.511719 258.003906 C 183.988281 257.703125 184.003906 256.695312 183.53125 256.316406 C 183.457031 256.261719 183.296875 256.246094 183.214844 256.292969 Z M 180.996094 227.605469 C 181.101562 227.878906 181.195312 228.164062 181.328125 228.429688 C 181.351562 228.472656 181.5625 228.464844 181.636719 228.40625 C 182.109375 228.023438 182.121094 226.902344 181.609375 226.753906 C 181.078125 226.601562 180.953125 227.101562 180.996094 227.605469 Z M 195.023438 375.761719 C 194.886719 375.210938 193.84375 375.222656 193.488281 375.734375 C 193.433594 375.8125 193.425781 376.039062 193.464844 376.0625 C 193.714844 376.203125 193.980469 376.308594 194.230469 376.421875 C 194.703125 376.46875 195.164062 376.335938 195.023438 375.761719 Z M 407.050781 200.222656 C 406.992188 200.171875 406.546875 200.433594 406.480469 200.625 C 406.242188 201.355469 406.574219 202.054688 407.1875 202.066406 C 407.585938 202.074219 407.988281 201.832031 408.449219 201.683594 C 407.925781 201.121094 407.511719 200.640625 407.050781 200.222656 Z M 40.628906 377.746094 C 40.082031 377.308594 39.488281 377.164062 39.066406 377.804688 C 38.6875 378.375 38.820312 379.003906 39.359375 379.472656 C 39.769531 378.898438 40.5 378.59375 40.628906 377.746094 Z M 389.519531 97.609375 C 389.652344 97.757812 389.808594 97.890625 389.980469 97.992188 C 390.015625 98.011719 390.167969 97.796875 390.277344 97.675781 C 390.128906 97.480469 390.003906 97.253906 389.820312 97.097656 C 389.742188 97.027344 389.546875 97.03125 389.460938 97.089844 C 389.382812 95.769531 389.742188 94.796875 388.863281 94.066406 C 388.210938 95.128906 388.117188 96.125 389.539062 97.773438 C 389.527344 97.714844 389.523438 97.664062 389.519531 97.609375 Z M 0.488281 375.449219 C 0.980469 374.902344 1.472656 374.40625 1.9375 373.867188 C 1.503906 373.289062 0.917969 373.144531 0.390625 373.550781 C -0.207031 374.007812 -0.0703125 374.644531 0.488281 375.449219 Z M 191.773438 214.15625 C 191.828125 214.203125 192.277344 213.945312 192.339844 213.753906 C 192.582031 213.023438 192.246094 212.324219 191.636719 212.3125 C 191.238281 212.304688 190.835938 212.542969 190.371094 212.695312 C 190.894531 213.257812 191.308594 213.738281 191.773438 214.15625 Z M 196.269531 216.804688 C 196.105469 217.117188 196.238281 217.675781 196.351562 218.085938 C 196.484375 218.574219 196.648438 218.523438 197.101562 217.933594 C 197.382812 217.570312 197.707031 217.242188 198.132812 216.765625 C 197.210938 216.25 196.605469 216.164062 196.269531 216.804688 Z M 194.578125 217.589844 C 194.097656 217.953125 193.671875 218.402344 193.226562 218.820312 C 193.765625 219.402344 194.191406 219.863281 194.773438 220.488281 C 195.460938 219.496094 195.113281 218.664062 195.175781 217.890625 C 195.179688 217.800781 194.675781 217.519531 194.578125 217.589844 Z M 408.324219 167.429688 C 409.0625 167.425781 409.433594 166.96875 409.292969 166.175781 C 409.203125 165.664062 408.957031 165.324219 408.367188 165.375 C 407.652344 165.4375 407.277344 165.847656 407.417969 166.644531 C 407.507812 167.152344 407.753906 167.550781 408.324219 167.429688 Z M 382.761719 249.457031 C 383.621094 250.171875 384.117188 251.890625 385.636719 250.558594 C 384.777344 249.84375 384.277344 248.125 382.761719 249.457031 Z M 383.734375 234.730469 C 384.324219 234.777344 384.535156 234.433594 384.671875 233.929688 C 384.773438 233.128906 384.429688 232.722656 383.714844 232.660156 C 383.125 232.613281 382.875 232.949219 382.785156 233.460938 C 382.648438 234.257812 383.019531 234.667969 383.734375 234.730469 Z M 373.304688 273.488281 C 373.300781 272.695312 372.878906 272.296875 372.140625 272.445312 C 371.664062 272.542969 371.351562 272.808594 371.394531 273.445312 C 371.453125 274.214844 371.835938 274.613281 372.574219 274.464844 C 373.046875 274.367188 373.417969 274.101562 373.304688 273.488281 Z M 264.710938 355.179688 C 264.332031 355.421875 264.046875 355.839844 263.742188 356.195312 C 263.21875 356.808594 263.257812 357.039062 264.015625 357.933594 C 264.761719 357.132812 265.507812 356.328125 266.253906 355.527344 C 265.828125 354.945312 265.265625 354.828125 264.710938 355.179688 Z M 173.617188 257.355469 C 173.484375 259.054688 173.484375 259.128906 173.855469 259.128906 C 174.273438 259.125 175.039062 259.027344 175.058594 258.875 C 175.242188 257.519531 176.984375 258.886719 177.074219 257.40625 C 175.914062 256.941406 174.765625 257.03125 173.617188 257.355469 Z M 204.519531 308.765625 C 204.628906 308.359375 204.671875 307.800781 204.492188 307.464844 C 204.199219 306.921875 203.703125 306.507812 203.292969 306.039062 C 202.816406 306.550781 202.390625 307.011719 201.835938 307.609375 C 202.347656 308.15625 202.640625 308.535156 202.992188 308.835938 C 203.523438 309.292969 204.386719 309.257812 204.519531 308.765625 Z M 377.101562 334.855469 C 377.199219 335.367188 377.441406 335.742188 378.03125 335.652344 C 378.335938 335.605469 378.652344 335.65625 378.960938 335.640625 C 379.703125 335.601562 380.070312 335.148438 379.929688 334.394531 C 379.828125 333.882812 379.585938 333.496094 378.996094 333.601562 C 378.847656 333.628906 378.6875 333.605469 378.53125 333.605469 C 378.378906 333.605469 378.222656 333.597656 378.066406 333.605469 C 377.324219 333.652344 376.957031 334.101562 377.101562 334.855469 Z M 355.476562 301.65625 C 355.65625 302.179688 356.5625 302.15625 357.078125 301.625 C 357.183594 300.40625 357.460938 299.144531 356.835938 297.988281 C 355.621094 297.605469 355.1875 298.652344 354.261719 299.519531 C 355.273438 300.050781 355.222656 300.929688 355.476562 301.65625 Z M 356.246094 207.703125 C 355.789062 208.195312 355.347656 208.671875 354.90625 209.144531 C 354 208.089844 352.390625 208.175781 351.542969 206.621094 C 352.136719 206.015625 352.578125 205.5625 353.066406 205.066406 C 354.632812 205.273438 355.191406 206.835938 356.246094 207.703125" fill="#fdf9de"/></g></g></svg>